<svg width="109" height="21" viewBox="0 0 109 21" fill="none" xmlns="http://www.w3.org/2000/svg">
  <path d="M0 20.4752V0H19.6396V20.4752H14.0846V4.9559H5.55507V20.4752H0ZM36.6828 8.44578L27.458 20.4752H22.4611V0H28.0153V12.0294L37.2409 0H42.2378V20.4752H36.6828V8.44578ZM50.6144 12.0794V20.4752H45.0593V0H50.6144V8.67237L57.5512 0H64.0599L55.9831 9.93637L66.0815 20.4752H58.5295L50.6144 12.0794Z" fill="#FC4C02"/>
  <path d="M72.8773 8.77702H69.771V0H75.2962V1.54701H71.6801L71.6687 3.38796H72.937C74.8936 3.38796 76.0556 4.25974 76.0556 6.01514V6.06429C76.0547 7.78238 74.9762 8.77702 72.8773 8.77702ZM72.8061 7.26731C73.743 7.26731 74.2168 6.84962 74.2168 6.05246V6.00331C74.2168 5.21798 73.7422 4.78846 72.7586 4.78846H71.6678V7.26822H72.8061V7.26731Z" fill="#11142D"/>
  <path d="M76.5991 2.35445H78.3184V3.36092C78.6621 2.74667 79.3854 2.20703 80.2987 2.20703C81.8167 2.20703 83.0015 3.37275 83.0015 5.49671V5.59499C83.0015 7.71894 81.8395 8.90923 80.2987 8.90923C79.338 8.90923 78.6392 8.41783 78.3184 7.79174V10.9586H76.5991V2.35445ZM81.2585 5.60773V5.50945C81.2585 4.20814 80.6424 3.57022 79.7766 3.57022C78.8756 3.57022 78.2586 4.22088 78.2586 5.50945V5.60773C78.2586 6.8963 78.851 7.52238 79.788 7.52238C80.7364 7.52238 81.2585 6.85899 81.2585 5.60773Z" fill="#11142D"/>
  <path d="M83.2642 5.63529V5.53701C83.2642 3.52408 84.6749 2.21094 86.5365 2.21094C88.3982 2.21094 89.7966 3.49951 89.7966 5.50061V5.59889C89.7966 7.62457 88.3859 8.91314 86.5242 8.91314C84.6749 8.91223 83.2642 7.63549 83.2642 5.63529ZM88.0536 5.61072V5.52427C88.0536 4.29667 87.4964 3.56048 86.5357 3.56048C85.5873 3.56048 85.0177 4.2721 85.0177 5.4997V5.59798C85.0177 6.82558 85.5635 7.56178 86.5357 7.56178C87.4964 7.56178 88.0536 6.82558 88.0536 5.61072Z" fill="#11142D"/>
  <path d="M92.1196 5.74342V8.77557H90.4126V2.35547H92.1196V5.1046L94.1236 2.35547H95.9492L93.685 5.28933L96.1276 8.77557H94.1834L92.1196 5.74342Z" fill="#11142D"/>
  <path d="M95.7393 5.64413V5.54585C95.7393 3.52017 97.1263 2.20703 98.929 2.20703C100.53 2.20703 101.953 3.1771 101.953 5.47214V5.96354H97.4831C97.5306 7.03098 98.0879 7.64523 99.0248 7.64523C99.8194 7.64523 100.211 7.28942 100.317 6.74888H101.941C101.74 8.13573 100.673 8.90923 98.9774 8.90923C97.1025 8.90923 95.7393 7.69437 95.7393 5.64413ZM100.28 4.87062C100.221 3.90055 99.7465 3.43463 98.9282 3.43463C98.1573 3.43463 97.6361 3.96243 97.5051 4.87062H100.28Z" fill="#11142D"/>
  <path d="M102.598 2.35445H104.317V3.36092C104.661 2.74667 105.384 2.20703 106.297 2.20703C107.815 2.20703 109 3.37275 109 5.49671V5.59499C109 7.71894 107.838 8.90923 106.297 8.90923C105.337 8.90923 104.638 8.41783 104.317 7.79174V10.9586H102.598V2.35445ZM107.257 5.60773V5.50945C107.257 4.20814 106.641 3.57022 105.775 3.57022C104.874 3.57022 104.257 4.22088 104.257 5.50945V5.60773C104.257 6.8963 104.85 7.52238 105.787 7.52238C106.735 7.52238 107.257 6.85899 107.257 5.60773Z" fill="#11142D"/>
</svg>
