<svg xmlns="http://www.w3.org/2000/svg" fill="none" viewBox="0 0 32 32">
    <rect width="32" height="32" fill="#fff" rx="16"/>
    <path fill="#11142D" d="M13.915 15.745 22.088 8.5h-2.904l-7.72 6.966V8.5H9.312v15.05h2.15v-6.472h.302c2.838 0 5.505 6.471 9.828 6.471h.495v-2.064h-.28c-2.494 0-5.204-4.686-7.893-5.74Z"/>
    <path fill="#11142D" fill-rule="evenodd" d="M13.91icon-512.png5 15.745c.112.044.225.094.337.15 1.09.544 2.18 1.627 3.258 2.695 1.472 1.46 2.918 2.895 4.298 2.895h.28v2.064h-.495c-2.388 0-4.27-1.974-5.956-3.742-1.353-1.42-2.58-2.705-3.838-2.729H11.463v6.471h-2.15V8.5h2.15v6.966L19.185 8.5h2.903l-8.173 7.245ZM11.8 14.71l7.256-6.546h3.918l-8.451 7.492c.557.297 1.103.715 1.631 1.178a36.17 36.17 0 0 1 1.598 1.522l.419.415c.663.652 1.302 1.253 1.924 1.691.626.44 1.193.687 1.714.687h.616v2.736h-.83c-1.17 0-2.211-.438-3.149-1.068-.934-.628-1.782-1.46-2.564-2.27-.168-.174-.333-.346-.494-.516-.601-.63-1.163-1.219-1.714-1.685-.69-.584-1.3-.919-1.874-.932v6.471H8.977V8.165h2.822v6.545Z" clip-rule="evenodd"/>
</svg>
