<svg width="49" height="49" viewBox="0 0 49 49" fill="none" xmlns="http://www.w3.org/2000/svg">
  <path opacity="0.1" d="M24.001 0C21.5349 0 19.582 2.00172 19.582 4.41896V7.43153C19.582 9.85223 21.5387 11.8505 24.001 11.8505C26.4217 11.8505 28.4199 9.89386 28.4199 7.43153V4.41896C28.4199 1.98935 26.4555 0 24.001 0V0Z" fill="#5F75EE"/>
  <path opacity="0.5" d="M24.001 36.1511C21.5803 36.1511 19.582 38.1077 19.582 40.5701V43.5826C19.582 46.0121 21.5464 48.0015 24.001 48.0015C26.4671 48.0015 28.4199 45.9998 28.4199 43.5825V40.57C28.4199 38.1494 26.4633 36.1511 24.001 36.1511Z" fill="#5F75EE"/>
  <path opacity="0.3" d="M43.5819 19.5818H40.5693C38.1486 19.5818 36.1504 21.5384 36.1504 24.0007C36.1504 26.4215 38.107 28.4197 40.5693 28.4197H43.5819C46.0115 28.4197 48.0009 26.4553 48.0009 24.0007C48.0009 21.5347 45.9992 19.5818 43.5819 19.5818Z" fill="#5F75EE"/>
  <path opacity="0.7" d="M11.8504 23.9992C11.8504 21.5634 9.86873 19.5818 7.43302 19.5818H4.41896C1.98935 19.5818 0 21.5462 0 24.0007C0 26.4668 2.00172 28.4197 4.41896 28.4197H7.43153C9.86723 28.4197 11.8504 26.4502 11.8504 23.9992Z" fill="#5F75EE"/>
  <path opacity="0.2" d="M32.6305 15.4459C34.3539 17.1599 37.1213 17.1313 38.8152 15.437L40.9745 13.2778C42.6962 11.5561 42.6963 8.7537 40.9748 7.03099C40.964 7.02011 40.9531 7.00952 40.9418 6.99902C39.1954 5.28587 36.4206 5.33255 34.7236 7.02986L32.6198 9.13368C30.8831 10.8715 30.8832 13.6984 32.6201 15.4355C32.6235 15.439 32.6269 15.4424 32.6305 15.4459Z" fill="#5F75EE"/>
  <path opacity="0.6" d="M15.4354 32.6185C13.6985 30.8818 10.8715 30.8816 9.13329 32.6186L7.02975 34.7222C5.33488 36.4166 5.27319 39.2152 7.02966 40.9715C8.78602 42.7279 11.5846 42.6663 13.2789 40.9715L15.4367 38.8138L15.4368 38.8137C17.1279 37.1228 17.1629 34.3557 15.4456 32.6289C15.4422 32.6255 15.4387 32.622 15.4354 32.6185Z" fill="#5F75EE"/>
  <path opacity="0.4" d="M38.8153 32.565C37.1243 30.8735 34.357 30.839 32.6304 32.556C32.6269 32.5594 32.6235 32.5629 32.62 32.5663C30.8832 34.3032 30.8831 37.1303 32.6201 38.8684L34.7237 40.972C36.4188 42.6672 39.1932 42.7181 40.9419 41.0028C40.9531 40.9924 40.964 40.9817 40.9749 40.9709C42.6964 39.2482 42.6963 36.4458 40.9745 34.7241L38.8153 32.565Z" fill="#5F75EE"/>
  <path d="M9.15927 15.4097C10.8821 17.1333 13.6844 17.1319 15.4093 15.4081C17.1312 13.685 17.1305 10.8825 15.4087 9.16185C14.7231 8.47558 13.9631 7.71543 13.2777 7.03C11.5832 5.33513 8.80845 5.28329 7.05939 6.99906C7.04823 7.00947 7.03726 7.02016 7.02639 7.03103C5.3049 8.75374 5.30499 11.5561 7.02676 13.2778C7.71275 13.9638 8.47328 14.7243 9.15927 15.4097Z" fill="#5F75EE"/>
</svg>
