<svg width="112" height="112" viewBox="0 0 112 112" fill="none" xmlns="http://www.w3.org/2000/svg">
  <mask id="path-1-outside-1" maskUnits="userSpaceOnUse" x="0" y="0" width="112" height="112" fill="black">
    <rect fill="white" width="112" height="112"/>
    <path d="M79.87 1H32.185C13.54 1 1 14.09 1 33.56V78.5005C1 97.9155 13.54 111 32.185 111H79.87C98.515 111 111 97.9155 111 78.5005V33.56C111 14.09 98.515 1 79.87 1Z"/>
  </mask>
  <path d="M79.87 1H32.185C13.54 1 1 14.09 1 33.56V78.5005C1 97.9155 13.54 111 32.185 111H79.87C98.515 111 111 97.9155 111 78.5005V33.56C111 14.09 98.515 1 79.87 1Z" fill="url(#paint0_linear)"/>
  <path d="M79.87 1H32.185C13.54 1 1 14.09 1 33.56V78.5005C1 97.9155 13.54 111 32.185 111H79.87C98.515 111 111 97.9155 111 78.5005V33.56C111 14.09 98.515 1 79.87 1Z" fill="url(#paint1_radial)"/>
  <path d="M79.87 1H32.185C13.54 1 1 14.09 1 33.56V78.5005C1 97.9155 13.54 111 32.185 111H79.87C98.515 111 111 97.9155 111 78.5005V33.56C111 14.09 98.515 1 79.87 1Z" fill="url(#paint2_linear)" fill-opacity="0.3"/>
  <path d="M79.87 0C79.3177 0 78.87 0.447715 78.87 1C78.87 1.55228 79.3177 2 79.87 2V0ZM79.87 0H32.185V2H79.87V0ZM32.185 0C22.6197 0 14.5524 3.36326 8.87846 9.28703C3.20806 15.2071 0 23.6082 0 33.56H2C2 24.0418 5.06194 16.1629 10.3228 10.6705C15.5801 5.18174 23.1053 2 32.185 2V0ZM0 33.56V78.5005H2V33.56H0ZM0 78.5005C0 88.4255 3.20852 96.8116 8.87896 102.723C14.5529 108.638 22.6199 112 32.185 112V110C23.1051 110 15.5796 106.819 10.3223 101.339C5.06148 95.8541 2 87.9905 2 78.5005H0ZM32.185 112H79.87V110H32.185V112ZM79.87 112C89.4353 112 97.4891 108.638 103.149 102.722C108.806 96.8102 112 88.4243 112 78.5005H110C110 87.9917 106.951 95.8555 101.704 101.34C96.4609 106.82 88.9497 110 79.87 110V112ZM112 78.5005V33.56H110V78.5005H112ZM112 33.56C112 23.6094 108.806 15.2084 103.15 9.28794C97.4895 3.36342 89.4355 0 79.87 0V2C88.9495 2 96.4605 5.18158 101.704 10.6696C106.951 16.1616 110 24.0405 110 33.56H112Z" fill="url(#paint3_linear)" mask="url(#path-1-outside-1)"/>
  <path d="M37.017 50.2995C38.7233 50.2995 40.2957 50.6135 41.7344 51.2413C43.173 51.8343 44.4109 52.6889 45.448 53.805C46.5187 54.8863 47.3383 56.1769 47.9071 57.6768C48.5093 59.1767 48.8104 60.8161 48.8104 62.595C48.8104 64.4437 48.4926 66.1528 47.8569 67.7225C47.2212 69.2572 46.3179 70.6001 45.1469 71.7512C44.0094 72.9023 42.621 73.8092 40.9816 74.4719C39.3422 75.0997 37.5188 75.4137 35.5114 75.4137C33.2364 75.4137 31.2792 75.1172 29.6398 74.5242C28.0004 73.9312 26.6455 73.2685 25.5748 72.536C24.3035 71.6989 23.2663 70.7397 22.4634 69.6583L26.98 64.6878C27.5488 65.3855 28.2514 65.9959 29.0878 66.5191C29.7569 67.0074 30.5933 67.4434 31.597 67.8271C32.6007 68.1759 33.7382 68.3503 35.0096 68.3503C36.9166 68.3503 38.3887 67.8271 39.4259 66.7807C40.4965 65.6994 41.0318 64.3042 41.0318 62.595C41.0318 60.8858 40.463 59.4557 39.3255 58.3047C38.2214 57.1536 36.7828 56.5781 35.0096 56.5781C34.0059 56.5781 33.136 56.735 32.4 57.049C31.6639 57.328 31.0617 57.6594 30.5933 58.0431C30.0246 58.4616 29.5729 58.9325 29.2383 59.4557L23.9689 58.9325L25.2235 38.0041H46.5521V44.8058H31.9985L31.4967 51.6076C31.8981 51.3634 32.3833 51.1541 32.952 50.9797C33.4204 50.8053 33.9892 50.6483 34.6583 50.5088C35.3609 50.3693 36.1471 50.2995 37.017 50.2995Z" fill="white"/>
  <path d="M56.8145 45.8522C56.8145 46.8987 57.1491 47.7707 57.8182 48.4683C58.4874 49.1659 59.3238 49.5147 60.3275 49.5147C61.3312 49.5147 62.1676 49.1659 62.8367 48.4683C63.5058 47.7707 63.8404 46.8987 63.8404 45.8522C63.8404 44.8058 63.5058 43.9338 62.8367 43.2362C62.1676 42.5386 61.3312 42.1897 60.3275 42.1897C59.3238 42.1897 58.4874 42.5386 57.8182 43.2362C57.1491 43.9338 56.8145 44.8058 56.8145 45.8522ZM78.6449 38.0041H84.918L62.8367 74.6289H56.5636L78.6449 38.0041ZM68.8589 45.8522C68.8589 46.9684 68.6414 48.0497 68.2065 49.0961C67.7716 50.1077 67.1693 51.0146 66.3998 51.8168C65.6303 52.6191 64.727 53.2644 63.6898 53.7527C62.6527 54.2411 61.5319 54.4852 60.3275 54.4852C59.123 54.4852 58.0022 54.2411 56.9651 53.7527C55.9279 53.2644 55.0246 52.6191 54.2551 51.8168C53.4856 51.0146 52.8834 50.1077 52.4484 49.0961C52.0135 48.0497 51.796 46.9684 51.796 45.8522C51.796 44.736 52.0135 43.6722 52.4484 42.6606C52.8834 41.6142 53.4856 40.6899 54.2551 39.8876C55.0246 39.0854 55.9279 38.4401 56.9651 37.9517C58.0022 37.4634 59.123 37.2192 60.3275 37.2192C61.5319 37.2192 62.6527 37.4634 63.6898 37.9517C64.727 38.4401 65.6303 39.0854 66.3998 39.8876C67.1693 40.6899 67.7716 41.6142 68.2065 42.6606C68.6414 43.6722 68.8589 44.736 68.8589 45.8522ZM84.6671 66.7807C84.6671 65.7343 84.3326 64.8622 83.6634 64.1646C82.9943 63.467 82.1579 63.1182 81.1542 63.1182C80.1505 63.1182 79.3141 63.467 78.6449 64.1646C77.9758 64.8622 77.6412 65.7343 77.6412 66.7807C77.6412 67.8271 77.9758 68.6991 78.6449 69.3967C79.3141 70.0944 80.1505 70.4432 81.1542 70.4432C82.1579 70.4432 82.9943 70.0944 83.6634 69.3967C84.3326 68.6991 84.6671 67.8271 84.6671 66.7807ZM72.6228 66.7807C72.6228 65.6645 72.8402 64.6006 73.2752 63.5891C73.7101 62.5427 74.3123 61.6183 75.0818 60.8161C75.8513 60.0138 76.7546 59.3685 77.7918 58.8802C78.829 58.3919 79.9497 58.1477 81.1542 58.1477C82.3586 58.1477 83.4794 58.3919 84.5166 58.8802C85.5537 59.3685 86.4571 60.0138 87.2266 60.8161C87.9961 61.6183 88.5983 62.5427 89.0332 63.5891C89.4681 64.6006 89.6856 65.6645 89.6856 66.7807C89.6856 67.8969 89.4681 68.9782 89.0332 70.0246C88.5983 71.0361 87.9961 71.943 87.2266 72.7453C86.4571 73.5476 85.5537 74.1928 84.5166 74.6812C83.4794 75.1695 82.3586 75.4137 81.1542 75.4137C79.9497 75.4137 78.829 75.1695 77.7918 74.6812C76.7546 74.1928 75.8513 73.5476 75.0818 72.7453C74.3123 71.943 73.7101 71.0361 73.2752 70.0246C72.8402 68.9782 72.6228 67.8969 72.6228 66.7807Z" fill="white"/>
  <defs>
    <linearGradient id="paint0_linear" x1="99.0435" y1="5.7826" x2="15.3478" y2="106.217" gradientUnits="userSpaceOnUse">
      <stop stop-color="#F7AD98"/>
      <stop offset="0.492708" stop-color="#FC8966"/>
      <stop offset="1" stop-color="#FFCDBF"/>
    </linearGradient>
    <radialGradient id="paint1_radial" cx="0" cy="0" r="1" gradientUnits="userSpaceOnUse" gradientTransform="translate(49.9634 59.3537) rotate(-34.4794) scale(79.8457 82.9556)">
      <stop stop-color="#FC4C02" stop-opacity="0.64"/>
      <stop offset="0.560907" stop-color="#FC4C02" stop-opacity="0.28"/>
      <stop offset="1" stop-color="#FFC6AE" stop-opacity="0"/>
    </radialGradient>
    <linearGradient id="paint2_linear" x1="1" y1="1" x2="111" y2="111" gradientUnits="userSpaceOnUse">
      <stop stop-color="#FFEFEA"/>
      <stop offset="0.503125" stop-color="#FC8866" stop-opacity="0"/>
      <stop offset="1" stop-color="#FFEFEA"/>
    </linearGradient>
    <linearGradient id="paint3_linear" x1="12.9565" y1="8.17391" x2="103.437" y2="105.253" gradientUnits="userSpaceOnUse">
      <stop stop-color="#FFDED1"/>
      <stop offset="0.471875" stop-color="#FEBFA5"/>
      <stop offset="1" stop-color="#FFDED1"/>
    </linearGradient>
  </defs>
</svg>
