<svg width="40" height="40" viewBox="0 0 40 40" fill="none" xmlns="http://www.w3.org/2000/svg">
<g filter="url(#filter0_i_25008_83421)">
<circle cx="20" cy="20" r="20" fill="white"/>
</g>
<path d="M31.2363 13.6625C30.1005 14.4716 28.8205 15.0562 27.4651 15.385V14.5563C28.221 14.3938 28.8306 13.9144 29.0907 13.2156L28.2942 12.9313C28.4431 12.5142 28.4206 12.0552 28.2317 11.6547C28.0429 11.2542 27.7029 10.9449 27.2863 10.7944C26.9523 10.6739 26.5888 10.6617 26.2475 10.7594C25.9061 10.8571 25.6041 11.0598 25.3845 11.3387L24.718 11.6475L25.0106 12.2731C24.9511 12.8199 25.1097 13.3681 25.4521 13.7986C25.7945 14.2292 26.293 14.5072 26.8393 14.5725V15.5475C25.5958 15.8563 24.1898 16.0837 22.6862 16.1975V15.2875C23.442 15.125 24.0597 14.6375 24.3117 13.9469L23.5233 13.6544C23.6722 13.2374 23.6498 12.7784 23.4609 12.3778C23.272 11.9773 22.932 11.668 22.5155 11.5175C22.1794 11.3973 21.814 11.386 21.4712 11.4852C21.1283 11.5844 20.8254 11.789 20.6055 12.07L19.939 12.3787L20.2398 13.0044C20.1802 13.549 20.338 14.0951 20.6789 14.5241C21.0198 14.9532 21.5162 15.2304 22.0603 15.2956V16.2381C19.8408 16.3692 17.6138 16.2794 15.412 15.97V14.4831C16.2993 14.3424 17.0983 13.8654 17.6431 13.1513C18.188 12.4372 18.4368 11.5408 18.3379 10.6481L18.8418 9.59188L17.7284 9.07187C17.4198 8.67953 17.0135 8.37525 16.5501 8.18962C16.0867 8.00399 15.5826 7.94355 15.0884 8.01436C14.5942 8.08517 14.1274 8.28474 13.7348 8.59302C13.3422 8.9013 13.0377 9.30744 12.8518 9.77063C12.6033 10.4043 12.5975 11.1073 12.8356 11.745L11.5027 12.2325C11.7413 12.8717 12.1599 13.4281 12.708 13.8347C13.256 14.2413 13.91 14.4806 14.5911 14.5238V15.84C12.031 15.3688 9.95843 14.5969 8.77994 13.6381C7.61189 15.605 6.99693 17.8507 7.00001 20.1381C6.99188 27.2312 12.8112 33 19.9959 33C27.1807 33 33 27.2394 33 20.13C33 17.7737 32.3579 15.5638 31.2363 13.6706V13.6625ZM22.3367 10.3637C23.2795 10.3637 24.0353 9.61625 24.0353 8.69C24.0353 7.7475 23.2713 7 22.3367 7C21.402 7 20.6461 7.7475 20.6461 8.68187C20.6461 9.60812 21.402 10.3556 22.3367 10.3556V10.3637Z" fill="#E8363D"/>
<path d="M13.7771 19.7068C13.6834 19.7076 13.5916 19.7337 13.5115 19.7823C13.4314 19.8309 13.3659 19.9003 13.322 19.9831L10.8105 25.4512H12.0378L12.5824 24.2324H14.98L15.5245 25.4512H16.7436L14.2566 20.0156C14.2155 19.923 14.1482 19.8445 14.063 19.7896C13.9778 19.7348 13.8784 19.706 13.7771 19.7068ZM12.9969 23.2818L13.7771 21.5106L14.5573 23.2818H13.005H12.9969ZM27.7158 19.7068C27.6345 19.7068 27.5533 19.7312 27.472 19.7637L27.1469 19.9262L25.6677 20.7224L26.1391 21.5999L27.1469 21.1043V25.4512H28.2847V20.3324C28.2847 19.9912 28.0409 19.7149 27.7158 19.7149V19.7068ZM18.5317 19.7068C18.4504 19.7068 18.3692 19.7312 18.2879 19.7637L17.9628 19.9262L16.4836 20.7224L16.9631 21.5999L17.9709 21.1043V25.4512H19.1088V20.3324C19.1088 19.9912 18.8568 19.7149 18.5398 19.7149L18.5317 19.7068ZM22.823 19.7312C22.3521 19.7343 21.8929 19.8784 21.5047 20.1449C21.1165 20.4114 20.817 20.788 20.6449 21.2262C20.4551 21.6787 20.361 22.1656 20.3685 22.6562C20.3685 23.6881 20.7424 24.6062 21.5064 25.1587C21.8803 25.4431 22.3191 25.5812 22.823 25.5812C23.5708 25.5812 24.1803 25.2887 24.6111 24.7199C25.0662 24.1512 25.2613 23.4606 25.2613 22.6562C25.2844 21.9132 25.052 21.1849 24.603 20.5924C24.3986 20.3152 24.1297 20.0918 23.8195 19.9418C23.5094 19.7917 23.1674 19.7194 22.823 19.7312ZM23.7496 23.9643C23.6559 24.1266 23.5207 24.261 23.3579 24.3538C23.195 24.4466 23.0105 24.4945 22.823 24.4924C22.4329 24.4924 22.1241 24.3218 21.8884 23.9643C21.6455 23.5722 21.5239 23.1171 21.5389 22.6562C21.5389 22.1443 21.6527 21.7056 21.8884 21.3562C22.1322 20.9906 22.4329 20.8199 22.823 20.8199C23.2132 20.8199 23.522 20.9906 23.7496 21.3562C23.9853 21.7056 24.0991 22.1443 24.0991 22.6562C24.0991 23.1681 23.9853 23.6068 23.7496 23.9643ZM25.7164 12.4024C25.7986 12.4707 25.9044 12.5039 26.0109 12.4948C26.1174 12.4857 26.216 12.435 26.2854 12.3537C26.3504 12.2724 26.3829 12.1668 26.3667 12.0612C26.3597 11.9583 26.313 11.8622 26.2366 11.7931C26.1544 11.7248 26.0486 11.6916 25.9421 11.7007C25.8357 11.7098 25.737 11.7605 25.6677 11.8418C25.6022 11.9214 25.5701 12.0234 25.5783 12.1262C25.5783 12.2318 25.6352 12.3293 25.7164 12.4024ZM20.9456 13.1337C21.1081 13.2718 21.3682 13.2556 21.5064 13.0849C21.541 13.0454 21.5673 12.9993 21.5837 12.9493C21.6 12.8993 21.6061 12.8466 21.6015 12.7942C21.597 12.7419 21.5819 12.691 21.5571 12.6446C21.5324 12.5982 21.4986 12.5573 21.4576 12.5243C21.3754 12.456 21.2696 12.4228 21.1631 12.432C21.0567 12.4411 20.9581 12.4918 20.8887 12.5731C20.7505 12.7437 20.7749 12.9956 20.9456 13.1337ZM17.0119 10.8343C17.0802 10.8098 17.143 10.772 17.1967 10.7232C17.2504 10.6744 17.294 10.6155 17.3249 10.5499C17.3559 10.4842 17.3736 10.4131 17.377 10.3407C17.3805 10.2682 17.3696 10.1957 17.3451 10.1274C17.2922 9.9904 17.1877 9.87958 17.0539 9.81881C16.9202 9.75803 16.7679 9.75215 16.6299 9.80243C16.5556 9.82233 16.4863 9.8575 16.4264 9.9057C16.3665 9.95389 16.3173 10.014 16.282 10.0823C16.2467 10.1506 16.226 10.2255 16.2213 10.3022C16.2166 10.3789 16.228 10.4558 16.2546 10.5279C16.2813 10.5999 16.3228 10.6657 16.3763 10.7208C16.4298 10.776 16.4943 10.8194 16.5656 10.8482C16.6368 10.8771 16.7133 10.8907 16.7902 10.8883C16.867 10.8859 16.9425 10.8675 17.0119 10.8343Z" fill="white"/>
<defs>
<filter id="filter0_i_25008_83421" x="0" y="0" width="40" height="48" filterUnits="userSpaceOnUse" color-interpolation-filters="sRGB">
<feFlood flood-opacity="0" result="BackgroundImageFix"/>
<feBlend mode="normal" in="SourceGraphic" in2="BackgroundImageFix" result="shape"/>
<feColorMatrix in="SourceAlpha" type="matrix" values="0 0 0 0 0 0 0 0 0 0 0 0 0 0 0 0 0 0 127 0" result="hardAlpha"/>
<feOffset dy="8"/>
<feGaussianBlur stdDeviation="4"/>
<feComposite in2="hardAlpha" operator="arithmetic" k2="-1" k3="1"/>
<feColorMatrix type="matrix" values="0 0 0 0 0 0 0 0 0 0 0 0 0 0 0 0 0 0 0.05 0"/>
<feBlend mode="normal" in2="shape" result="effect1_innerShadow_25008_83421"/>
</filter>
</defs>
</svg>
