<svg width="36" height="36" viewBox="0 0 36 36" fill="none" xmlns="http://www.w3.org/2000/svg">
<path d="M17.9414 24.775V20.833" stroke="currentColor" stroke-width="1.5" stroke-linecap="round" stroke-linejoin="round"/>
<path d="M31.6335 17.2163L31.5901 17.2478C27.957 19.4858 23.16 20.8373 17.934 20.8373C12.708 20.8373 7.92455 19.4858 4.29305 17.2478L4.24805 17.2163" stroke="currentColor" stroke-width="1.5" stroke-linecap="round" stroke-linejoin="round"/>
<path fill-rule="evenodd" clip-rule="evenodd" d="M4.125 20.0262C4.125 10.7982 7.5795 7.72168 17.9415 7.72168C28.305 7.72168 31.758 10.7982 31.758 20.0262C31.758 29.2542 28.305 32.3307 17.9415 32.3307C7.5795 32.3307 4.125 29.2542 4.125 20.0262Z" stroke="currentColor" stroke-width="1.5" stroke-linecap="round" stroke-linejoin="round"/>
<path d="M22.8363 8.05379V7.10879C22.8363 5.21279 21.4518 3.67529 19.7463 3.67529H16.1388C14.4333 3.67529 13.0488 5.21279 13.0488 7.10879V8.05379" stroke="currentColor" stroke-width="1.5" stroke-linecap="round" stroke-linejoin="round"/>
</svg>
