<svg width="12" height="12" fill="none" xmlns="http://www.w3.org/2000/svg"><path d="M6 0C3.208 0 .947.316.947 2.526v6.316c0 .559.247 1.055.632 1.402v1.124c0 .348.284.632.632.632h.631c.35 0 .632-.284.632-.632v-.631h5.052v.631c0 .348.281.632.632.632h.631a.633.633 0 0 0 .632-.632v-1.124a1.88 1.88 0 0 0 .632-1.402V2.526C11.053.316 8.792 0 6 0ZM3.158 9.474a.946.946 0 0 1-.947-.948.946.946 0 1 1 1.895 0 .946.946 0 0 1-.948.948Zm5.684 0a.946.946 0 0 1-.947-.948.946.946 0 1 1 1.895 0 .946.946 0 0 1-.948.948Zm1.558-3.79H1.6V2.526h8.8v3.158Z" fill="#79919E"/></svg>
