<svg width="12" height="12" fill="none" xmlns="http://www.w3.org/2000/svg"><path d="M12 6.552c0-.236-.053-.462-.15-.668a2.156 2.156 0 0 0-.035-.158l-1.042-2.583-.008-.023c-.364-1.086-.883-2.091-2.199-2.091H3.535c-1.348 0-1.825 1.03-2.197 2.085l-1.09 2.59A1.594 1.594 0 0 0 0 6.551v.803c0 .125.015.246.043.363A.632.632 0 0 0 0 7.946v2.39c0 .351.284.635.635.635h1.317c.35 0 .635-.284.635-.634V9.14h6.901v1.196c0 .35.285.634.635.634h1.242c.35 0 .635-.284.635-.634V7.946a.634.634 0 0 0-.043-.228c.028-.117.043-.238.043-.363v-.803ZM2.11 3.372c.415-1.17.749-1.528 1.424-1.528h5.03c.67 0 1.044.4 1.423 1.524l.76 1.541a2.328 2.328 0 0 0-.808-.143H2.06c-.258 0-.506.042-.734.117l.785-1.51Zm.654 4.289h-1.39a.453.453 0 0 1 0-.907h1.39a.453.453 0 0 1 0 .907Zm7.825 0H9.2a.453.453 0 0 1 0-.907h1.39a.453.453 0 1 1 0 .907Z" fill="#79919E"/></svg>
