<?xml version="1.0" encoding="UTF-8" standalone="no"?>
<svg
   width="24"
   height="24"
   viewBox="0 0 24 24"
   fill="none"
   version="1.1"
   id="svg4"
   sodipodi:docname="catalog-mobile.svg"
   inkscape:version="1.1 (1:1.1+202105261517+ce6663b3b7)"
   xmlns:inkscape="http://www.inkscape.org/namespaces/inkscape"
   xmlns:sodipodi="http://sodipodi.sourceforge.net/DTD/sodipodi-0.dtd"
   xmlns="http://www.w3.org/2000/svg"
   xmlns:svg="http://www.w3.org/2000/svg">
  <defs
     id="defs8" />
  <sodipodi:namedview
     id="namedview6"
     pagecolor="#ffffff"
     bordercolor="#666666"
     borderopacity="1.0"
     inkscape:pageshadow="2"
     inkscape:pageopacity="0.0"
     inkscape:pagecheckerboard="0"
     showgrid="false"
     inkscape:zoom="35.166667"
     inkscape:cx="8.5165877"
     inkscape:cy="12.014218"
     inkscape:window-width="1848"
     inkscape:window-height="1016"
     inkscape:window-x="72"
     inkscape:window-y="27"
     inkscape:window-maximized="1"
     inkscape:current-layer="svg4" />
  <path
     class="calalog"
     d="M12 14.5135C11.1383 14.5135 10.2768 14.3022 9.49134 13.8797L3.82727 10.8325C3.00593 10.3907 2.49744 9.53629 2.50011 8.60273C2.50282 7.66917 3.01625 6.81774 3.84012 6.38064L9.51846 3.36823C11.0723 2.54392 12.9276 2.54392 14.4814 3.36823L20.1598 6.38064C20.9837 6.81771 21.4971 7.66914 21.4998 8.60273C21.5025 9.53629 20.994 10.3907 20.1727 10.8325L14.5085 13.8797C13.7233 14.3022 12.8615 14.5134 12 14.5135ZM12 4.2389C11.386 4.2389 10.7721 4.38734 10.2125 4.68424L4.53423 7.69669C4.19116 7.87869 3.98564 8.21906 3.98453 8.60709C3.98343 8.99511 4.18692 9.33666 4.52896 9.52066L10.1931 12.5678C11.3246 13.1765 12.6755 13.1765 13.807 12.5678L19.4712 9.52066C19.8132 9.33666 20.0167 8.99514 20.0156 8.60709C20.0145 8.21903 19.809 7.87869 19.4659 7.69669L13.7874 4.68424C13.2278 4.38738 12.6139 4.2389 12 4.2389ZM9.86552 4.02623H9.86587H9.86552ZM14.5086 20.6162L21.1085 17.0658C21.4697 16.8715 21.6055 16.4203 21.4117 16.058C21.218 15.6957 20.7681 15.5595 20.4069 15.7539L13.8069 19.3043C12.6755 19.913 11.3246 19.913 10.1902 19.3027L3.59025 15.7896C3.2281 15.5968 2.77888 15.735 2.58677 16.0981C2.39459 16.4612 2.53232 16.9118 2.89439 17.1045L9.49138 20.6162C10.2769 21.0388 11.1383 21.25 12 21.25C12.8615 21.25 13.7233 21.0387 14.5086 20.6162ZM14.5086 17.2666L21.1085 13.7162C21.4697 13.5218 21.6055 13.0706 21.4117 12.7084C21.218 12.346 20.7681 12.2099 20.4069 12.4042L13.8069 15.9546C12.6755 16.5634 11.3246 16.5633 10.1902 15.9531L3.59025 12.4399C3.2281 12.2472 2.77888 12.3853 2.58677 12.7484C2.39459 13.1116 2.53232 13.5621 2.89439 13.7549L9.49138 17.2665C10.2769 17.6891 11.1383 17.9004 12 17.9004C12.8615 17.9004 13.7233 17.6891 14.5086 17.2666Z"
     fill="#11142d"
     id="path2"
     style="fill:white" />
  <path
     class="calalog"
     d="m 12.050601,13.058151 c -0.692405,0 -1.337663,-0.166805 -1.968805,-0.469636 L 5.4706141,10.203205 C 4.8106416,9.8865407 3.9145521,9.2672156 3.9166974,8.5980772 3.9188506,7.9289391 4.8189334,7.3255862 5.4809393,7.0122905 L 10.268734,4.6640701 c 1.248559,-0.5908324 2.135682,-0.6239598 3.38421,-0.033127 l 4.941374,2.3813478 c 0.66203,0.3132742 1.482972,0.9604187 1.485143,1.6295784 0.0021,0.6691384 -0.814837,1.2446718 -1.474778,1.5613357 l -4.675515,2.385796 c -0.630933,0.302831 -1.186326,0.469078 -1.878567,0.46915 z"
     fill="white"
     id="path2-5"
     style="fill:#11142d;stroke-width:0.758906"
     sodipodi:nodetypes="ccccccccsccc" />
</svg>
