<svg width="24" height="24" viewBox="0 0 24 24" fill="none" xmlns="http://www.w3.org/2000/svg">
<rect width="24" height="24" fill="white"/>
<path fill-rule="evenodd" clip-rule="evenodd" d="M10.3467 6.6738C10.3467 8.7024 8.7024 10.3476 6.6729 10.3476C4.6452 10.3476 3 8.7024 3 6.6738C3 4.6452 4.6452 3 6.6729 3C8.7024 3 10.3467 4.6452 10.3467 6.6738Z" stroke="#11142D" stroke-width="1.5" stroke-linecap="round" stroke-linejoin="round"/>
<path d="M2.99825 10.3122L3.91638 9.4679M10.3474 3.03689L9.42824 3.95604" stroke="#11142D" stroke-width="1.5" stroke-linecap="round"/>
<path d="M3.00215 3.0374L3.91977 3.95604M10.3508 10.3122L9.43164 9.4679" stroke="#11142D" stroke-width="1.5" stroke-linecap="round"/>
<path fill-rule="evenodd" clip-rule="evenodd" d="M20.9365 6.6738C20.9365 8.7024 19.2922 10.3476 17.2627 10.3476C15.235 10.3476 13.5898 8.7024 13.5898 6.6738C13.5898 4.6452 15.235 3 17.2627 3C19.2922 3 20.9365 4.6452 20.9365 6.6738Z" stroke="#11142D" stroke-width="1.5" stroke-linecap="round" stroke-linejoin="round"/>
<path d="M13.5881 10.3122L14.5062 9.4679M20.9372 3.03689L20.0181 3.95604" stroke="#11142D" stroke-width="1.5" stroke-linecap="round"/>
<path d="M13.592 3.0374L14.5096 3.95604M20.9406 10.3122L20.0215 9.4679" stroke="#11142D" stroke-width="1.5" stroke-linecap="round"/>
<path fill-rule="evenodd" clip-rule="evenodd" d="M10.3467 17.2539C10.3467 19.2825 8.7024 20.9277 6.6729 20.9277C4.6452 20.9277 3 19.2825 3 17.2539C3 15.2253 4.6452 13.5801 6.6729 13.5801C8.7024 13.5801 10.3467 15.2253 10.3467 17.2539Z" stroke="#11142D" stroke-width="1.5" stroke-linecap="round" stroke-linejoin="round"/>
<path d="M2.99825 20.8923L3.91638 20.048M10.3474 13.617L9.42824 14.5361" stroke="#11142D" stroke-width="1.5" stroke-linecap="round"/>
<path d="M3.00215 13.6175L3.91977 14.5361M10.3508 20.8923L9.43164 20.048" stroke="#11142D" stroke-width="1.5" stroke-linecap="round"/>
<path fill-rule="evenodd" clip-rule="evenodd" d="M20.9365 17.2539C20.9365 19.2825 19.2922 20.9277 17.2627 20.9277C15.235 20.9277 13.5898 19.2825 13.5898 17.2539C13.5898 15.2253 15.235 13.5801 17.2627 13.5801C19.2922 13.5801 20.9365 15.2253 20.9365 17.2539Z" stroke="#11142D" stroke-width="1.5" stroke-linecap="round" stroke-linejoin="round"/>
<path d="M13.5881 20.8923L14.5062 20.048M20.9372 13.617L20.0181 14.5361" stroke="#11142D" stroke-width="1.5" stroke-linecap="round"/>
<path d="M13.592 13.6175L14.5096 14.5361M20.9406 20.8923L20.0215 20.048" stroke="#11142D" stroke-width="1.5" stroke-linecap="round"/>
</svg>
