<svg width="24" height="24" viewBox="0 0 24 24" fill="none" xmlns="http://www.w3.org/2000/svg">
<rect x="3.75781" y="5" width="15.4286" height="5.14286" rx="2.57143" stroke="currentColor" stroke-width="1.5"/>
<rect x="11.9004" y="17.8571" width="5.14286" height="2.57143" rx="1.28571" transform="rotate(90 11.9004 17.8571)" stroke="currentColor" stroke-width="1.5"/>
<path d="M18.6152 7.57129L19.4009 7.57129C20.2294 7.57129 20.9009 8.24286 20.9009 9.07129V11.4284C20.9009 13.0853 19.5578 14.4284 17.9009 14.4284H12.6152C11.5107 14.4284 10.6152 15.3239 10.6152 16.4284V17.857" stroke="currentColor" stroke-width="1.5"/>
<path d="M4.02539 12.2L5.54056 14.4295C6.03483 15.1568 5.94257 16.1328 5.32076 16.7546V16.7546C4.60535 17.47 3.44543 17.47 2.73002 16.7546V16.7546C2.10821 16.1328 2.01595 15.1568 2.51022 14.4295L4.02539 12.2Z" stroke="currentColor" stroke-width="1.5"/>
</svg>
