<svg width="24" height="24" viewBox="0 0 24 24" fill="none" xmlns="http://www.w3.org/2000/svg">
<path d="M0.913086 12.0834C0.913086 6.39355 5.52563 1.78101 11.2155 1.78101V1.78101C16.9053 1.78101 21.5179 6.43078 21.5179 12.1206V12.1206V12.1206C21.5179 13.9232 19.9602 15.3309 18.1668 15.1491L17.8504 15.1171C15.7535 14.9045 13.9894 16.6764 14.2005 18.7734V18.7734C14.3987 20.743 12.8531 22.4603 10.8736 22.4603H10.357V22.4603C5.14125 22.4603 0.913086 18.2321 0.913086 13.0164V12.0834Z" stroke="currentColor" stroke-width="1.5"/>
<rect x="7.46973" y="14.9407" width="3.5" height="3.5" rx="1.75" stroke="currentColor" stroke-width="1.5"/>
<rect x="4.1748" y="9.30103" width="3.5" height="3.5" rx="1.75" stroke="currentColor" stroke-width="1.5"/>
<path d="M14.2049 10.3856C14.6672 9.92169 15.4141 9.91376 15.886 10.3677L22.0416 16.2894C22.6009 16.8275 22.6104 17.7218 22.0625 18.2716C21.5147 18.8214 20.6236 18.812 20.0875 18.2506L14.1871 12.0727C13.7348 11.5991 13.7427 10.8495 14.2049 10.3856Z" fill="white" stroke="currentColor" stroke-width="1.5"/>
<path d="M9.36577 5.59889C9.35942 5.56421 9.39002 5.53347 9.42458 5.53979L12.9394 6.18264C14.1032 6.39549 14.9384 7.41119 14.9288 8.6019V8.6019C14.9178 9.97109 13.7968 11.09 12.4325 11.1011V11.1011C11.242 11.1108 10.221 10.2706 10.0065 9.09891L9.36577 5.59889Z" stroke="currentColor" stroke-width="1.5"/>
</svg>
