<svg width="24" height="24" viewBox="0 0 24 24" fill="none" xmlns="http://www.w3.org/2000/svg">
<path fill-rule="evenodd" clip-rule="evenodd" d="M0.857178 11.9983C0.857178 3.64058 3.64334 0.855469 11.9994 0.855469C13.0976 0.855469 14.0995 0.903556 15.0116 1.00605C16.2163 1.14143 18.4061 3.16128 19.2278 3.98092C20.4325 5.1824 22.7895 7.58537 22.8846 8.18611C23.0614 9.30323 23.1429 10.5693 23.1429 11.9983C23.1429 20.3561 20.3567 23.1412 11.9994 23.1412C3.64334 23.1412 0.857178 20.3561 0.857178 11.9983Z" fill="#6AA4F0"/>
<g style="mix-blend-mode:difference" opacity="0.2">
<path d="M15.2144 4.26249C15.2144 6.37767 16.9333 8.09106 19.0542 8.09106H22.8512C22.5859 7.37695 20.3723 5.12133 19.2176 3.96965C18.4422 3.19627 16.4489 1.35431 15.2144 1.03516V4.26249Z" fill="#6AA4F0"/>
</g>
<path d="M16.9145 14.5686H15.6003C14.7549 14.5686 14.0671 13.8958 14.0671 13.0686V10.9258C14.0671 10.0986 14.7549 9.42578 15.6003 9.42578H16.9145C17.2772 9.42578 17.5715 9.71378 17.5715 10.0686C17.5715 10.4235 17.2772 10.7115 16.9145 10.7115H15.6003C15.4794 10.7115 15.3813 10.8075 15.3813 10.9258V13.0686C15.3813 13.1869 15.4794 13.2829 15.6003 13.2829H16.9145C17.2772 13.2829 17.5715 13.5709 17.5715 13.9258C17.5715 14.2806 17.2772 14.5686 16.9145 14.5686Z" fill="white" stroke="#6AA4F0" stroke-width="0.4"/>
<path d="M12.2193 14.5686H11.7812C10.9358 14.5686 10.248 13.8958 10.248 13.0686V10.9258C10.248 10.0986 10.9358 9.42578 11.7812 9.42578H12.2193C13.0647 9.42578 13.7525 10.0986 13.7525 10.9258V13.0686C13.7525 13.8958 13.0647 14.5686 12.2193 14.5686ZM11.7812 10.7115C11.6603 10.7115 11.5622 10.8075 11.5622 10.9258V13.0686C11.5622 13.1869 11.6603 13.2829 11.7812 13.2829H12.2193C12.3402 13.2829 12.4383 13.1869 12.4383 13.0686V10.9258C12.4383 10.8075 12.3402 10.7115 12.2193 10.7115H11.7812Z" fill="white" stroke="#6AA4F0" stroke-width="0.4"/>
<path d="M8.39994 14.5686H7.08579C6.72308 14.5686 6.42871 14.2806 6.42871 13.9258V10.0686C6.42871 9.71378 6.72308 9.42578 7.08579 9.42578H8.39994C9.24538 9.42578 9.93312 10.0986 9.93312 10.9258V13.0686C9.93312 13.8958 9.24538 14.5686 8.39994 14.5686ZM7.74287 13.2829H8.39994C8.52085 13.2829 8.61897 13.1869 8.61897 13.0686V10.9258C8.61897 10.8075 8.52085 10.7115 8.39994 10.7115H7.74287V13.2829Z" fill="white" stroke="#6AA4F0" stroke-width="0.4"/>
</svg>
