<svg width="24" height="24" viewBox="0 0 24 24" fill="none" xmlns="http://www.w3.org/2000/svg">
<path d="M17.4479 10.9318L16.8296 11.3564L17.4479 10.9318ZM11.9843 3.0228L12.6026 3.44742L11.9843 3.0228ZM12.0157 3.0228L11.3974 3.44742L12.0157 3.0228ZM11.3661 2.59818L5.93391 10.5071L7.17036 11.3564L12.6026 3.44742L11.3661 2.59818ZM18.0661 10.5071L12.6339 2.59818L11.3974 3.44742L16.8296 11.3564L18.0661 10.5071ZM16.4761 20.5149C19.5842 18.1332 20.283 13.7348 18.0661 10.5071L16.8296 11.3564C18.5947 13.9262 18.0383 17.4281 15.5638 19.3243L16.4761 20.5149ZM7.52389 20.5149C10.1649 22.5386 13.8351 22.5386 16.4761 20.5149L15.5638 19.3243C13.4611 20.9355 10.5389 20.9355 8.43625 19.3243L7.52389 20.5149ZM5.93391 10.5071C3.71701 13.7348 4.41581 18.1332 7.52389 20.5149L8.43625 19.3243C5.96168 17.4281 5.40532 13.9262 7.17036 11.3564L5.93391 10.5071ZM12.6026 3.44742C12.3121 3.87027 11.6879 3.87026 11.3974 3.44742L12.6339 2.59818C12.3284 2.15335 11.6716 2.15334 11.3661 2.59818L12.6026 3.44742Z" fill="#11142D"/>
</svg>
