<svg width="24" height="24" viewBox="0 0 24 24" fill="none" xmlns="http://www.w3.org/2000/svg">
<path d="M3 7C3 4.79086 4.79086 3 7 3H17C19.2091 3 21 4.79086 21 7V11H3V7Z" stroke="currentColor" stroke-width="1.5"/>
<rect x="5" y="7" width="7" height="4" rx="2" stroke="currentColor" stroke-width="1.5"/>
<rect x="12" y="7" width="7" height="4" rx="2" stroke="currentColor" stroke-width="1.5"/>
<path d="M1 15C1 12.7909 2.79086 11 5 11H19C21.2091 11 23 12.7909 23 15V17C23 18.1046 22.1046 19 21 19H3C1.89543 19 1 18.1046 1 17V15Z" stroke="currentColor" stroke-width="1.5"/>
<path d="M4 19V21" stroke="currentColor" stroke-width="1.5" stroke-linecap="round"/>
<path d="M20 19V21" stroke="currentColor" stroke-width="1.5" stroke-linecap="round"/>
</svg>
