<svg width="24" height="24" viewBox="0 0 24 24" fill="none" xmlns="http://www.w3.org/2000/svg">
<path d="M16.2778 9L15.9296 9.20893C14.8603 9.85047 14.8998 11.4132 16 12V12C17.1002 12.5868 17.1397 14.1495 16.0704 14.7911L15.7222 15" stroke="#11142D" stroke-width="1.5" stroke-linecap="round"/>
<path d="M12.2778 9L11.9296 9.20893C10.8603 9.85047 10.8998 11.4132 12 12V12C13.1002 12.5868 13.1397 14.1495 12.0704 14.7911L11.7222 15" stroke="#11142D" stroke-width="1.5" stroke-linecap="round"/>
<path d="M8.66365 9.64312C9.01883 9.43001 9.13401 8.96931 8.9209 8.61413C8.70779 8.25894 8.24709 8.14377 7.89191 8.35688L8.66365 9.64312ZM7.33635 14.3569C6.98117 14.57 6.86599 15.0307 7.0791 15.3859C7.29221 15.7411 7.75291 15.8562 8.10809 15.6431L7.33635 14.3569ZM8.07044 14.7911L8.45631 15.4342L8.07044 14.7911ZM7.89191 8.35688L7.54369 8.56581L8.31544 9.85205L8.66365 9.64312L7.89191 8.35688ZM7.68456 14.148L7.33635 14.3569L8.10809 15.6431L8.45631 15.4342L7.68456 14.148ZM7.64706 12.6618C8.23291 12.9742 8.25391 13.8063 7.68456 14.148L8.45631 15.4342C10.0254 14.4927 9.96757 12.1994 8.35294 11.3382L7.64706 12.6618ZM7.54369 8.56581C5.97456 9.50729 6.03243 11.8006 7.64706 12.6618L8.35294 11.3382C7.76709 11.0258 7.74609 10.1937 8.31544 9.85205L7.54369 8.56581Z" fill="#11142D"/>
<path fill-rule="evenodd" clip-rule="evenodd" d="M2.75 12C2.75 5.063 5.063 2.75 12 2.75C18.937 2.75 21.25 5.063 21.25 12C21.25 18.937 18.937 21.25 12 21.25C5.063 21.25 2.75 18.937 2.75 12Z" stroke="#11142D" stroke-width="1.5" stroke-linecap="round" stroke-linejoin="round"/>
</svg>
