<svg width="40" height="40" viewBox="0 0 40 40" fill="none" xmlns="http://www.w3.org/2000/svg">
<g filter="url(#filter0_i_25008_83409)">
<circle cx="20" cy="20" r="20" fill="white"/>
</g>
<path d="M29.8416 19.9711C29.8531 19.9656 29.8579 19.9608 29.8619 19.9615C30.686 19.9684 31.5168 19.8643 32.3307 20.0353C33.1581 20.209 33.748 20.7799 33.9306 21.6831C34.0514 22.2836 34.0229 22.8689 33.7935 23.4391C33.5606 24.0141 33.1459 24.394 32.5791 24.5705C32.275 24.6656 31.9478 24.7118 31.6295 24.7256C31.0708 24.7497 30.5088 24.7332 29.9481 24.7332C29.9155 24.7332 29.883 24.729 29.8402 24.7249V19.9711H29.8416ZM30.8265 22.336C30.8265 22.7869 30.8272 23.2371 30.8265 23.6887C30.8265 23.7673 30.8231 23.8341 30.9331 23.8307C31.2365 23.8217 31.5426 23.8403 31.844 23.8107C32.2906 23.7673 32.6538 23.5618 32.8411 23.1164C33.0095 22.7179 33.0203 22.2994 32.9368 21.8775C32.8208 21.288 32.4284 20.9219 31.8481 20.875C31.5555 20.8509 31.2602 20.8619 30.967 20.8467C30.8496 20.8412 30.8231 20.886 30.8251 20.9984C30.8292 21.4452 30.8265 21.8906 30.8265 22.336ZM24.268 24.7339C23.8764 24.7339 23.5227 24.7353 23.1691 24.7304C23.1351 24.7304 23.0937 24.6939 23.07 24.6629C22.6939 24.1637 22.324 23.6618 21.9445 23.1661C21.9025 23.1116 21.8162 23.0709 21.747 23.0647C21.5916 23.0495 21.147 23.0571 21.147 23.0571C21.147 23.0571 21.1415 23.0957 21.1429 23.2012C21.147 23.6473 21.1442 24.0927 21.1442 24.5388V24.7235H20.1593V19.9629C20.198 19.9587 20.2306 19.9518 20.2632 19.9518C20.942 19.9532 21.6208 19.9484 22.3002 19.9601C22.6403 19.9649 22.9634 20.0594 23.2607 20.24C23.6632 20.4848 23.8567 20.8633 23.8886 21.328C23.9035 21.5341 23.8859 21.7513 23.8424 21.9533C23.746 22.3966 23.4596 22.6841 23.0625 22.862C23.0116 22.8848 22.9607 22.9089 22.8948 22.9392C23.3503 23.5349 23.7983 24.1196 24.2687 24.7346L24.268 24.7339ZM21.1429 22.2008C21.4626 22.2008 21.766 22.2015 22.0681 22.2001C22.1475 22.2001 22.2296 22.2008 22.3084 22.1843C22.7027 22.1043 22.9023 21.8616 22.886 21.49C22.8697 21.1342 22.6478 20.8991 22.2527 20.8688C21.9167 20.8433 21.5794 20.8557 21.2413 20.8488C21.1666 20.8461 21.1415 20.8785 21.1422 20.9522C21.1449 21.1384 21.1422 21.3252 21.1422 21.5114V22.2001L21.1429 22.2008ZM29.3813 24.7325C29.0501 24.7325 28.7372 24.7359 28.4249 24.729C28.3903 24.7284 28.3414 24.6711 28.3251 24.6298C28.2355 24.4085 28.1521 24.1851 28.0733 23.9603C28.0434 23.8755 28.002 23.8397 27.9091 23.8397C27.2819 23.8438 26.6553 23.8438 26.0281 23.8403C25.9317 23.8397 25.8863 23.8714 25.8537 23.9672C25.7743 24.1968 25.6806 24.4222 25.5876 24.647C25.572 24.6822 25.5285 24.7284 25.496 24.7297C25.183 24.7366 24.8708 24.7332 24.5362 24.7332C24.6434 24.4567 24.7405 24.1995 24.843 23.9431C25.3541 22.6531 25.8679 21.3645 26.3763 20.0739C26.4123 19.9822 26.4564 19.9477 26.5515 19.9511C26.8318 19.9567 27.1128 19.9546 27.3925 19.9525C27.4644 19.9525 27.512 19.9642 27.5445 20.047C28.1466 21.5783 28.7514 23.1088 29.3562 24.6394C29.363 24.6615 29.3678 24.6849 29.382 24.7339L29.3813 24.7325ZM26.9608 20.9922C26.7137 21.6555 26.4693 22.3125 26.2202 22.984H27.7075C27.4556 22.3139 27.2099 21.6548 26.9601 20.9922H26.9608ZM11.5353 24.7359H10.5477V19.967C10.8518 19.967 11.1498 19.9642 11.4457 19.9705C11.4769 19.9711 11.5129 20.0173 11.5367 20.0504C12.153 20.9378 12.7673 21.8271 13.3816 22.7158C13.4556 22.822 13.531 22.9268 13.6233 23.0571V19.9725H14.6021V24.7428C14.3027 24.7428 14.0054 24.7463 13.7088 24.7387C13.6749 24.738 13.6348 24.6842 13.609 24.647C12.9492 23.6949 12.2908 22.742 11.6324 21.7892C11.61 21.7561 11.5822 21.7258 11.5367 21.6706L11.5353 24.7359ZM8.23438 19.9718H9.21183V24.7318H8.23438V19.9718ZM19.1411 24.4429C19.1411 24.4829 19.0902 24.5457 19.0488 24.5622C18.5099 24.8566 17.584 24.9442 16.8258 24.7339C15.9407 24.4884 15.3569 23.9183 15.1804 22.9799C15.025 22.1588 15.1275 21.3735 15.6888 20.7144C16.0269 20.3186 16.4667 20.1001 16.9595 19.987C17.6274 19.8353 18.2743 19.9194 18.9097 20.1649C19.0095 20.2035 19.042 20.2586 19.038 20.3676C19.0298 20.6275 19.0346 20.8881 19.0346 21.1701C18.9809 21.1453 18.949 21.1322 18.9171 21.1163C18.3395 20.8171 17.7401 20.724 17.115 20.9253C16.4599 21.1363 16.0812 21.7299 16.1239 22.4394C16.1477 22.8103 16.2196 23.1605 16.462 23.4487C16.7376 23.7769 17.1068 23.9093 17.5107 23.9438C17.7014 23.9596 17.8338 23.9589 17.9499 23.9369C18.1073 23.9058 18.199 23.9052 18.2031 23.648C18.1983 23.4281 18.1976 23.1888 18.1976 22.9489H17.4007V22.025H18.199V22.0223C18.4305 22.0223 18.6531 22.0216 18.8723 22.025H18.9959V22.0257C19.021 22.0271 19.0461 22.0264 19.0712 22.0271C19.133 22.0271 19.1405 22.0878 19.1405 22.1215C19.1445 22.8448 19.1445 23.7176 19.1398 24.4422L19.1411 24.4429Z" fill="#2C2E35"/>
<path d="M6.97881 26.0065V18.284L13.6235 14.6623V18.6956H14.6016V13L6 17.6883V27H14.6016V26.0058L6.97881 26.0065Z" fill="#FFC141"/>
<defs>
<filter id="filter0_i_25008_83409" x="0" y="0" width="40" height="48" filterUnits="userSpaceOnUse" color-interpolation-filters="sRGB">
<feFlood flood-opacity="0" result="BackgroundImageFix"/>
<feBlend mode="normal" in="SourceGraphic" in2="BackgroundImageFix" result="shape"/>
<feColorMatrix in="SourceAlpha" type="matrix" values="0 0 0 0 0 0 0 0 0 0 0 0 0 0 0 0 0 0 127 0" result="hardAlpha"/>
<feOffset dy="8"/>
<feGaussianBlur stdDeviation="4"/>
<feComposite in2="hardAlpha" operator="arithmetic" k2="-1" k3="1"/>
<feColorMatrix type="matrix" values="0 0 0 0 0 0 0 0 0 0 0 0 0 0 0 0 0 0 0.05 0"/>
<feBlend mode="normal" in2="shape" result="effect1_innerShadow_25008_83409"/>
</filter>
</defs>
</svg>
