<svg width="24" height="24" viewBox="0 0 24 24" fill="none" xmlns="http://www.w3.org/2000/svg">
<path fill-rule="evenodd" clip-rule="evenodd" d="M7.78552 2.65682C6.33155 3.00137 5.15161 3.5874 4.2425 4.49886C2.57535 6.17032 2 8.75489 2 12.2742C2 15.7935 2.57535 18.3781 4.2425 20.0495C5.91021 21.7215 8.4893 22.2984 11.9995 22.2984C15.5102 22.2984 18.0895 21.7215 19.7574 20.0495C21.4246 18.3781 22 15.7935 22 12.2742C22 8.75489 21.4246 6.1703 19.7574 4.49884C18.7278 3.46671 17.3509 2.85189 15.622 2.53247C15.8335 2.7873 15.9606 3.11463 15.9606 3.47164C15.9606 3.69825 15.9094 3.91289 15.8179 4.10463C17.0915 4.39927 18.0192 4.88031 18.6954 5.55817C19.9189 6.78478 20.5 8.83731 20.5 12.2742C20.5 15.7111 19.9189 17.7636 18.6954 18.9902C17.4724 20.2163 15.4264 20.7984 11.9995 20.7984C8.57308 20.7984 6.52741 20.2163 5.30453 18.9902C4.08108 17.7636 3.5 15.7111 3.5 12.2742C3.5 8.83731 4.08108 6.78476 5.30453 5.55815C5.90032 4.96082 6.6914 4.51633 7.74231 4.21754C7.61346 3.99882 7.53955 3.74386 7.53955 3.47164C7.53955 3.1703 7.63012 2.89012 7.78552 2.65682Z" fill="white"/>
<path d="M14.4889 2H9.01124C8.19845 2 7.53955 2.6589 7.53955 3.47169C7.53955 4.28448 8.19845 4.94337 9.01124 4.94337H14.4889C15.3017 4.94337 15.9606 4.28448 15.9606 3.47169C15.9606 2.6589 15.3017 2 14.4889 2Z" stroke="white" stroke-width="1.5"/>
<path d="M7.26772 10.6772L8.62555 11.7157L10.3708 9.59993" stroke="white" stroke-width="1.5" stroke-linecap="round" stroke-linejoin="round"/>
<path d="M7.26772 15.2643L8.62555 16.3028L10.3708 14.1871" stroke="white" stroke-width="1.5" stroke-linecap="round" stroke-linejoin="round"/>
<path d="M12.8037 11.0162H16.5932" stroke="white" stroke-width="1.5" stroke-linecap="round"/>
<path d="M12.8037 15.2196H16.5932" stroke="white" stroke-width="1.5" stroke-linecap="round"/>
</svg>
