<svg width="34" height="34" viewBox="0 0 34 34" fill="none" xmlns="http://www.w3.org/2000/svg">
<path fill-rule="evenodd" clip-rule="evenodd" d="M15.4278 17.1296C15.4278 18.3581 14.4322 19.3537 13.2037 19.3537C11.9751 19.3537 10.9795 18.3581 10.9795 17.1296C10.9795 15.901 11.9751 14.9054 13.2037 14.9054H13.2073C14.4346 14.9066 15.4278 15.9022 15.4278 17.1296Z" stroke="url(#paint0_linear)" stroke-width="1.5" stroke-linecap="round" stroke-linejoin="round"/>
<path d="M15.4336 17.1293H23.0212V19.3534" stroke="url(#paint1_linear)" stroke-width="1.5" stroke-linecap="round" stroke-linejoin="round"/>
<path d="M19.6259 19.3534V17.1293" stroke="url(#paint2_linear)" stroke-width="1.5" stroke-linecap="round" stroke-linejoin="round"/>
<path fill-rule="evenodd" clip-rule="evenodd" d="M3.89551 17.3196C3.89551 7.46507 7.17208 4.18115 16.999 4.18115C26.8273 4.18115 30.1038 7.46507 30.1038 17.3196C30.1038 27.1742 26.8273 30.4581 16.999 30.4581C7.17208 30.4581 3.89551 27.1742 3.89551 17.3196Z" stroke="url(#paint3_linear)" stroke-width="1.5" stroke-linecap="round" stroke-linejoin="round"/>
<defs>
<linearGradient id="paint0_linear" x1="10.9795" y1="14.9054" x2="15.4278" y2="19.3537" gradientUnits="userSpaceOnUse">
<stop stop-color="#43B5E9"/>
<stop offset="1" stop-color="#8CCC98"/>
</linearGradient>
<linearGradient id="paint1_linear" x1="15.4336" y1="17.1293" x2="16.6344" y2="21.2256" gradientUnits="userSpaceOnUse">
<stop stop-color="#43B5E9"/>
<stop offset="1" stop-color="#8CCC98"/>
</linearGradient>
<linearGradient id="paint2_linear" x1="19.0254" y1="17.1293" x2="20.8851" y2="18.1334" gradientUnits="userSpaceOnUse">
<stop stop-color="#43B5E9"/>
<stop offset="1" stop-color="#8CCC98"/>
</linearGradient>
<linearGradient id="paint3_linear" x1="3.89551" y1="4.18115" x2="30.1724" y2="30.3894" gradientUnits="userSpaceOnUse">
<stop stop-color="#43B5E9"/>
<stop offset="1" stop-color="#8CCC98"/>
</linearGradient>
</defs>
</svg>
