<svg width="40" height="40" viewBox="0 0 40 40" fill="none" xmlns="http://www.w3.org/2000/svg">
<g filter="url(#filter0_i_25008_83430)">
<circle cx="20" cy="20" r="20" fill="white"/>
</g>
<path fill-rule="evenodd" clip-rule="evenodd" d="M9 19.8319C9.17848 19.8791 10.021 19.8742 10.2116 19.8373L10.214 11.2937L29.7556 11.2947L29.7595 19.8476L30.9697 19.8555C31.035 18.2587 30.9745 16.5265 30.9745 14.9174C30.9745 14.2821 31.0171 10.2706 30.9527 10H9.00629L9 19.8319ZM9 29.8222L14.1018 29.8389L14.1115 28.5462L10.2136 28.5428V21.2791L9.00725 21.2702L9 29.8222ZM25.5979 27.0129C25.6893 26.4303 26.0013 26.0327 26.6441 26.0445C27.2545 26.0553 27.5955 26.4253 27.6473 27.0193L25.5979 27.0129ZM27.6144 28.4582C27.4828 28.6579 27.4035 28.807 27.1404 28.9138C26.5546 29.152 25.5549 28.9114 25.567 27.8435L28.9048 27.8347C28.9131 27.0104 28.8787 26.4898 28.4869 25.9141C28.2011 25.4938 27.7571 25.1622 27.0644 25.0613C25.611 24.8492 24.5861 25.6547 24.3912 26.8948C23.9176 29.9073 26.5121 30.4004 27.8374 29.7454C28.1837 29.5742 28.8313 28.9876 28.8284 28.4562L27.6144 28.4582ZM15.935 27.0114C16.024 26.4214 16.3447 26.0341 16.9826 26.044C17.5964 26.0538 17.9311 26.4273 17.9872 27.0193L15.935 27.0114ZM17.9495 28.4562C17.8102 28.684 17.7609 28.8016 17.4799 28.9143C16.8027 29.1845 15.8503 28.7957 15.9089 27.844L19.2424 27.8322C19.2898 26.2989 18.7723 25.2655 17.3933 25.0598C15.9572 24.8453 14.9168 25.6562 14.7306 26.8958C14.5333 28.2106 14.854 29.4645 16.2237 29.8793C17.7178 30.3315 19.1558 29.3892 19.1674 28.4567L17.9495 28.4562ZM19.5089 25.1597L21.1558 29.838L22.4293 29.8404L24.0768 25.1567L22.8027 25.17C22.6112 25.5622 22.1212 27.6354 21.8809 28.3715L21.8044 28.5403L20.87 25.1572L19.5089 25.1597ZM29.7595 29.8365L30.9648 29.838L30.974 21.2688L29.7745 21.2683L29.7595 29.8365ZM24.8545 21.5192C25.4146 21.4105 25.5839 22.3479 25.0064 22.4626C24.4081 22.5817 24.203 21.6462 24.8545 21.5192ZM24.1837 22.1147C24.2301 22.4709 24.5948 22.7765 25.018 22.7219C25.3933 22.6732 25.6961 22.3376 25.6337 21.8701C25.5172 20.9947 24.0521 21.1049 24.1837 22.1147ZM23.1046 21.5384L23.4349 21.567L23.4151 21.847L23.106 21.8544L23.1046 21.5384ZM23.5258 22.0738C23.5723 22 23.6806 21.94 23.7072 21.783C23.7904 21.2978 23.241 21.2156 22.8603 21.3081L22.8835 22.6934L23.1031 22.6983L23.1263 22.1211C23.3019 22.1191 23.3063 22.1983 23.4857 22.4488C23.6574 22.6884 23.5824 22.6934 23.9452 22.7012C23.8519 22.4813 23.654 22.2859 23.5258 22.0738ZM22.053 22.4207C20.9014 22.7726 21.1713 20.978 22.2809 21.6462L22.261 21.351C21.6821 21.1576 21.003 21.3318 21.0335 22.0286C21.048 22.3509 21.2376 22.5571 21.4605 22.6579C21.7914 22.8065 21.9805 22.716 22.2891 22.6077L22.2755 21.8785L21.8083 21.8922L21.7991 22.1102L22.0618 22.1309L22.053 22.4207ZM26.1624 21.2988C26.1416 21.9429 26.0676 22.7918 26.8415 22.7278C27.449 22.6771 27.3929 22.0517 27.3958 21.7033C27.4001 21.253 27.4262 21.284 27.1534 21.2855C27.1428 21.7402 27.2855 22.4818 26.7665 22.4724C26.263 22.4631 26.3984 21.7023 26.397 21.287L26.1624 21.2988ZM28.189 21.5458C28.5372 21.5124 28.6432 21.5414 28.5793 21.8672C28.4681 21.9139 28.3631 21.9405 28.1996 21.9228L28.189 21.5458ZM28.2021 22.1752C29.3252 22.1629 28.9764 21.0444 27.9568 21.3086C27.9568 21.7692 27.936 22.2333 27.9771 22.6924L28.1909 22.6978L28.2021 22.1752Z" fill="#010101"/>
<defs>
<filter id="filter0_i_25008_83430" x="0" y="0" width="40" height="48" filterUnits="userSpaceOnUse" color-interpolation-filters="sRGB">
<feFlood flood-opacity="0" result="BackgroundImageFix"/>
<feBlend mode="normal" in="SourceGraphic" in2="BackgroundImageFix" result="shape"/>
<feColorMatrix in="SourceAlpha" type="matrix" values="0 0 0 0 0 0 0 0 0 0 0 0 0 0 0 0 0 0 127 0" result="hardAlpha"/>
<feOffset dy="8"/>
<feGaussianBlur stdDeviation="4"/>
<feComposite in2="hardAlpha" operator="arithmetic" k2="-1" k3="1"/>
<feColorMatrix type="matrix" values="0 0 0 0 0 0 0 0 0 0 0 0 0 0 0 0 0 0 0.05 0"/>
<feBlend mode="normal" in2="shape" result="effect1_innerShadow_25008_83430"/>
</filter>
</defs>
</svg>
