<svg width="24" height="24" viewBox="0 0 24 24" fill="none" xmlns="http://www.w3.org/2000/svg">
<path d="M14.3053 15.4497H8.90527" stroke="url(#paint0_linear)" stroke-width="1.5" stroke-linecap="round" stroke-linejoin="round"/>
<path d="M12.2604 11.4385H8.90442" stroke="url(#paint1_linear)" stroke-width="1.5" stroke-linecap="round" stroke-linejoin="round"/>
<path fill-rule="evenodd" clip-rule="evenodd" d="M20.1598 8.3L14.4898 2.9C13.7598 2.8 12.9398 2.75 12.0398 2.75C5.74978 2.75 3.64978 5.07 3.64978 12C3.64978 18.94 5.74978 21.25 12.0398 21.25C18.3398 21.25 20.4398 18.94 20.4398 12C20.4398 10.58 20.3498 9.35 20.1598 8.3Z" stroke="url(#paint2_linear)" stroke-width="1.5" stroke-linecap="round" stroke-linejoin="round"/>
<path d="M13.9342 2.83252V5.49352C13.9342 7.35152 15.4402 8.85652 17.2982 8.85652H20.2492" stroke="url(#paint3_linear)" stroke-width="1.5" stroke-linecap="round" stroke-linejoin="round"/>
<defs>
<linearGradient id="paint0_linear" x1="8.90527" y1="14.9497" x2="9.26336" y2="16.8834" gradientUnits="userSpaceOnUse">
<stop stop-color="#43B5E9"/>
<stop offset="1" stop-color="#8CCC98"/>
</linearGradient>
<linearGradient id="paint1_linear" x1="8.90442" y1="10.9385" x2="9.45177" y2="12.7754" gradientUnits="userSpaceOnUse">
<stop stop-color="#43B5E9"/>
<stop offset="1" stop-color="#8CCC98"/>
</linearGradient>
<linearGradient id="paint2_linear" x1="3.64978" y1="2.75" x2="22.0631" y2="19.4613" gradientUnits="userSpaceOnUse">
<stop stop-color="#43B5E9"/>
<stop offset="1" stop-color="#8CCC98"/>
</linearGradient>
<linearGradient id="paint3_linear" x1="13.9342" y1="2.83252" x2="19.9515" y2="9.1405" gradientUnits="userSpaceOnUse">
<stop stop-color="#43B5E9"/>
<stop offset="1" stop-color="#8CCC98"/>
</linearGradient>
</defs>
</svg>
