<svg width="32" height="32" viewBox="0 0 32 32" fill="none" xmlns="http://www.w3.org/2000/svg">
  <path d="M5.333 9.333a4 4 0 014-4h1.143a4 4 0 014 4v1.143a4 4 0 01-4 4H9.333a4 4 0 01-4-4V9.333zM5.333 21.524a4 4 0 014-4h1.143a4 4 0 014 4v1.143a4 4 0 01-4 4H9.333a4 4 0 01-4-4v-1.143zM17.524 9.333a4 4 0 014-4h1.143a4 4 0 014 4v1.143a4 4 0 01-4 4h-1.143a4 4 0 01-4-4V9.333zM17.524 21.524a4 4 0 014-4h1.143a4 4 0 014 4v1.143a4 4 0 01-4 4h-1.143a4 4 0 01-4-4v-1.143z" stroke="currentColor" stroke-width="1.5"/>
</svg>
