<svg width="184" height="20" viewBox="0 0 184 20" fill="none" xmlns="http://www.w3.org/2000/svg"><path d="m5.124 7.96 8.48-7.394h-3.012L2.58 7.675V.565H.35v15.36H2.58V9.32h.313c2.946 0 5.713 6.605 10.198 6.605h.514V13.82h-.29c-2.59 0-5.401-4.784-8.19-5.859ZM23.45 10.33c1.05-.527 1.496-1.405 1.496-2.392 0-1.69-1.317-2.984-3.615-2.984H15.73v10.971h5.6c2.433 0 3.772-1.338 3.772-3.094 0-1.075-.535-1.953-1.651-2.501Zm-5.645-.812V6.709h3.28c1.116 0 1.674.461 1.674 1.339 0 .943-.558 1.47-1.674 1.47h-3.28Zm3.303 4.652h-3.303v-2.897h3.303c1.183 0 1.807.483 1.807 1.405 0 .965-.624 1.492-1.807 1.492ZM37.181 13.95c-.356 0-.58-.22-.58-.592V9.145c0-2.94-2.164-4.41-4.842-4.41-2.567 0-4.575 1.448-5 3.488h2.255c.402-1.119 1.629-1.645 2.633-1.645 1.696 0 2.723.614 2.723 1.601 0 .549-.179.922-2.366 1.163l-1.25.132c-2.678.285-4.083 1.711-4.083 3.445 0 1.909 1.316 3.226 3.793 3.226 1.696 0 3.28-.725 4.218-1.8.112 1.01.759 1.58 1.852 1.58h1.072V13.95h-.425Zm-6.493.395c-1.228 0-1.92-.592-1.92-1.448 0-.812.424-1.558 2.232-1.755l1.25-.132c1.25-.132 1.941-.395 2.41-.746v.987c0 1.668-1.852 3.094-3.972 3.094ZM46.051 4.735c-1.562 0-2.946.768-3.883 1.996V4.954H40.16v14.701h2.12V14.28c.915 1.163 2.276 1.866 3.771 1.866 2.968 0 5.267-2.37 5.267-5.705 0-3.336-2.299-5.705-5.267-5.705Zm-.357 9.479c-2.008 0-3.481-1.58-3.481-3.774 0-2.195 1.473-3.775 3.481-3.775 1.986 0 3.437 1.58 3.437 3.775 0 2.194-1.45 3.774-3.437 3.774ZM61.934 4.954h-9.931v1.975h3.905v8.996h2.12V6.93h3.906V4.954ZM73.228 13.95c-.357 0-.58-.22-.58-.592V9.145c0-2.94-2.165-4.41-4.843-4.41-2.567 0-4.575 1.448-5 3.488h2.255c.401-1.119 1.629-1.645 2.633-1.645 1.696 0 2.723.614 2.723 1.601 0 .549-.179.922-2.366 1.163l-1.25.132c-2.677.285-4.083 1.711-4.083 3.445 0 1.909 1.316 3.226 3.793 3.226 1.696 0 3.28-.725 4.218-1.8.112 1.01.759 1.58 1.852 1.58h1.072V13.95h-.424Zm-6.494.395c-1.228 0-1.92-.592-1.92-1.448 0-.812.424-1.558 2.232-1.755l1.25-.132c1.25-.132 1.941-.395 2.41-.746v.987c0 1.668-1.852 3.094-3.972 3.094Z" fill="currentcolor"/><path fill-rule="evenodd" clip-rule="evenodd" d="M5.124 7.96c.117.045.233.096.35.153 1.13.555 2.262 1.66 3.38 2.751 1.528 1.49 3.028 2.955 4.46 2.955h.29v2.106h-.513c-2.477 0-4.43-2.015-6.18-3.82-1.404-1.448-2.676-2.76-3.982-2.784H2.58v6.604H.35V.565H2.58v7.11l8.012-7.11h3.013L5.125 7.96ZM2.93 6.904 10.458.223h4.065L5.753 7.87c.58.303 1.145.73 1.694 1.201.557.48 1.113 1.023 1.657 1.554l.435.423c.688.665 1.351 1.279 1.997 1.726.649.45 1.238.702 1.778.702h.64v2.792h-.863c-1.212 0-2.294-.447-3.266-1.09-.97-.641-1.85-1.49-2.661-2.317-.175-.178-.345-.354-.513-.527-.623-.643-1.206-1.243-1.778-1.72-.716-.596-1.348-.937-1.944-.95v6.604H0V.223h2.929v6.68Zm12.8 9.021V4.954h5.602c2.298 0 3.615 1.295 3.615 2.984 0 .87-.346 1.653-1.143 2.188a3.25 3.25 0 0 1-.352.204c.126.062.245.128.356.198.874.551 1.295 1.35 1.295 2.303 0 1.756-1.339 3.094-3.771 3.094H15.73Zm8.393-5.602c.885.609 1.329 1.48 1.329 2.508 0 .968-.372 1.838-1.092 2.463-.716.621-1.748.974-3.028.974h-5.95V4.61h5.95c1.215 0 2.207.343 2.9.944.696.604 1.064 1.446 1.064 2.383 0 .929-.36 1.785-1.174 2.385Zm-5.968-3.27v2.122h2.931c.508 0 .829-.12 1.021-.292.187-.167.304-.43.304-.835 0-.364-.112-.59-.29-.733-.192-.155-.517-.263-1.035-.263h-2.931Zm0 6.774h2.954c.545 0 .904-.122 1.122-.303.208-.173.337-.44.337-.846 0-.379-.124-.62-.328-.779-.218-.17-.58-.283-1.131-.283h-2.954v2.21Zm8.179-5.26.085-.412c.465-2.235 2.648-3.763 5.34-3.763 1.401 0 2.699.384 3.653 1.184.96.807 1.539 2.009 1.539 3.569v4.213c0 .12.035.174.057.197.022.022.07.052.175.052h.772v2.66h-1.42c-.608 0-1.132-.158-1.524-.495a1.87 1.87 0 0 1-.52-.746c-1.02.896-2.484 1.461-4.026 1.461-1.299 0-2.34-.345-3.06-.985-.723-.643-1.082-1.548-1.082-2.583 0-.965.394-1.847 1.153-2.52.754-.67 1.85-1.118 3.242-1.266l1.248-.131h.001c1.095-.121 1.614-.27 1.859-.418.108-.065.144-.12.162-.161a.607.607 0 0 0 .034-.244c0-.355-.175-.652-.556-.877-.395-.233-1.006-.381-1.818-.381-.915 0-1.969.482-2.304 1.416l-.082.23h-2.928Zm5.671.775-1.25.132c-2.678.285-4.083 1.711-4.083 3.445 0 1.909 1.316 3.226 3.793 3.226 1.526 0 2.96-.586 3.916-1.486.107-.1.208-.206.302-.314.017.15.045.29.084.419.229.747.837 1.161 1.768 1.161h1.072V13.95h-.425c-.356 0-.58-.22-.58-.592V9.145c0-2.94-2.164-4.41-4.842-4.41-2.42 0-4.345 1.287-4.912 3.145a3.911 3.911 0 0 0-.087.343h2.254c.402-1.119 1.629-1.645 2.633-1.645 1.696 0 2.723.614 2.723 1.601 0 .549-.179.922-2.366 1.163Zm-2.52 4.332c.248.193.643.328 1.203.328.983 0 1.9-.33 2.566-.848.667-.517 1.058-1.2 1.058-1.903v-.383c-.49.227-1.13.389-2.024.483l-1.249.131c-.867.095-1.337.316-1.59.555-.243.228-.331.515-.331.86 0 .329.129.59.368.777ZM31 11.142c-1.808.197-2.232.943-2.232 1.755 0 .856.692 1.448 1.92 1.448 2.12 0 3.972-1.426 3.972-3.094v-.987a2.649 2.649 0 0 1-.349.22c-.454.241-1.089.424-2.061.526l-1.25.132Zm11.28 8.513h-2.12V4.954h2.008V6.73c.11-.144.227-.282.349-.414.916-.984 2.156-1.582 3.534-1.582 2.968 0 5.267 2.37 5.267 5.705s-2.299 5.705-5.267 5.705a4.75 4.75 0 0 1-3.423-1.467 5.083 5.083 0 0 1-.348-.399v5.376Zm.348-4.497v4.84h-2.817V4.611h2.706v1.216c.946-.895 2.174-1.435 3.534-1.435 3.187 0 5.615 2.55 5.615 6.048 0 3.497-2.428 6.047-5.615 6.047a5.083 5.083 0 0 1-3.423-1.329Zm-.066-4.718c0 2.036 1.346 3.43 3.132 3.43 1.76 0 3.088-1.39 3.088-3.43 0-2.041-1.329-3.432-3.088-3.432-1.786 0-3.133 1.395-3.133 3.432Zm19.72-5.829v2.66h-3.905v8.997H55.56V7.272h-3.906v-2.66h10.628ZM52.004 6.93V4.954h9.93v1.975h-3.905v8.996h-2.12V6.93h-3.905Zm10.376 1.637.085-.411c.465-2.235 2.648-3.763 5.34-3.763 1.401 0 2.699.384 3.653 1.184.96.807 1.539 2.009 1.539 3.569v4.213c0 .12.035.174.058.197.021.022.069.052.174.052H74v2.66h-1.42c-.608 0-1.132-.158-1.524-.495a1.868 1.868 0 0 1-.52-.746c-1.02.896-2.484 1.461-4.026 1.461-1.299 0-2.34-.345-3.06-.985-.723-.643-1.082-1.548-1.082-2.583 0-.965.394-1.847 1.153-2.52.754-.67 1.85-1.118 3.242-1.266l1.248-.131h.001c1.095-.121 1.614-.27 1.859-.418.108-.065.145-.12.163-.161a.607.607 0 0 0 .033-.244c0-.355-.175-.652-.556-.877-.395-.233-1.006-.381-1.818-.381-.915 0-1.969.482-2.304 1.416l-.082.23h-2.928Zm5.671.776-1.25.132c-2.677.285-4.083 1.711-4.083 3.445 0 1.909 1.316 3.226 3.793 3.226 1.526 0 2.96-.586 3.916-1.486.107-.1.208-.206.302-.314.017.15.045.29.085.419.228.747.836 1.161 1.767 1.161h1.072V13.95h-.424c-.357 0-.58-.22-.58-.592V9.145c0-2.94-2.165-4.41-4.843-4.41-2.42 0-4.345 1.287-4.911 3.145a3.876 3.876 0 0 0-.088.343h2.254c.401-1.119 1.629-1.645 2.633-1.645 1.696 0 2.723.614 2.723 1.601 0 .549-.179.922-2.366 1.163Zm-2.52 4.332c.248.193.643.328 1.204.328.982 0 1.899-.33 2.565-.848.667-.517 1.058-1.2 1.058-1.903v-.383c-.49.227-1.13.389-2.024.483l-1.249.131c-.867.095-1.337.316-1.59.555-.243.228-.331.515-.331.86 0 .329.129.59.368.777Zm1.516-2.532c-1.808.197-2.232.943-2.232 1.755 0 .856.692 1.448 1.92 1.448 2.12 0 3.972-1.426 3.972-3.094v-.987a2.649 2.649 0 0 1-.349.22c-.454.241-1.089.424-2.061.526l-1.25.132ZM17.805 9.518h3.28c1.116 0 1.674-.527 1.674-1.47 0-.878-.558-1.339-1.674-1.339h-3.28v2.809Zm3.303 4.652c1.183 0 1.807-.527 1.807-1.492 0-.922-.624-1.405-1.807-1.405h-3.303v2.897h3.303Zm21.105-3.73c0 2.194 1.473 3.774 3.481 3.774 1.986 0 3.437-1.58 3.437-3.774 0-2.195-1.45-3.775-3.437-3.775-2.008 0-3.481 1.58-3.481 3.775Z" fill="currentcolor"/><path d="M98 16.043V.223h15.496v15.82h-4.383V4.052h-6.73v11.991H98Zm28.942-9.295-7.278 9.295h-3.942V.223h4.382v9.294l7.279-9.294h3.942v15.82h-4.383V6.748Zm10.992 2.808v6.487h-4.382V.223h4.382v6.7l5.474-6.7h5.135L142.17 7.9l7.968 8.143h-5.959l-6.245-6.487ZM155.5 7.004h-2.451V.223h4.359v1.195h-2.853l-.009 1.422h1.001c1.544 0 2.46.674 2.46 2.03v.038c0 1.328-.851 2.096-2.507 2.096Zm-.057-1.166c.74 0 1.114-.323 1.114-.939v-.038c0-.607-.375-.938-1.151-.938h-.861v1.916h.898v-.001ZM158.436 2.044h1.356v.777a1.812 1.812 0 0 1 1.562-.891c1.198 0 2.133.9 2.133 2.541v.076c0 1.642-.917 2.561-2.133 2.561-.758 0-1.309-.38-1.562-.863v2.447h-1.356V2.044Zm3.676 2.513v-.076c0-1.005-.486-1.498-1.169-1.498-.711 0-1.198.503-1.198 1.498v.076c0 .996.467 1.48 1.207 1.48.748 0 1.16-.513 1.16-1.48ZM163.695 4.576V4.5c0-1.556 1.113-2.57 2.582-2.57 1.469 0 2.572.995 2.572 2.541v.076c0 1.566-1.113 2.561-2.581 2.561-1.46 0-2.573-.987-2.573-2.532Zm3.779-.02V4.49c0-.949-.439-1.518-1.197-1.518-.749 0-1.198.55-1.198 1.499v.076c0 .948.431 1.517 1.198 1.517.758 0 1.197-.569 1.197-1.507ZM170.681 4.66v2.344h-1.347V2.043h1.347v2.124l1.581-2.124h1.44l-1.786 2.267 1.927 2.694h-1.534l-1.628-2.343Z" fill="currentcolor"/><path d="M173.537 4.585V4.51c0-1.565 1.094-2.58 2.517-2.58 1.263 0 2.385.75 2.385 2.523v.38h-3.526c.037.825.477 1.3 1.216 1.3.627 0 .936-.275 1.02-.693h1.281c-.158 1.072-1 1.67-2.338 1.67-1.479 0-2.555-.94-2.555-2.524Zm3.583-.597c-.047-.75-.421-1.11-1.067-1.11-.608 0-1.019.408-1.123 1.11h2.19ZM178.949 2.044h1.357v.777a1.812 1.812 0 0 1 1.562-.891c1.198 0 2.133.9 2.133 2.541v.076c0 1.642-.917 2.561-2.133 2.561-.758 0-1.309-.38-1.562-.863v2.447h-1.357V2.044Zm3.676 2.513v-.076c0-1.005-.486-1.498-1.169-1.498-.711 0-1.197.503-1.197 1.498v.076c0 .996.468 1.48 1.206 1.48.749 0 1.16-.513 1.16-1.48Z" fill="currentcolor"/><path fill-rule="evenodd" clip-rule="evenodd" d="m90.45.442-8 15.82-.895-.442 8-15.82.894.442Z" fill="currentColor"/></svg>
