<svg width="24" height="24" viewBox="0 0 24 24" fill="none" xmlns="http://www.w3.org/2000/svg">
<path d="M6.01379 3.07227C6.00717 3.0376 6.0376 3.00717 6.07227 3.01379L9.84077 3.73272C11.0937 3.97175 12 5.06732 12 6.34283V6.34283C12 7.81034 10.8103 9 9.34283 9V9C8.06732 9 6.97175 8.09368 6.73272 6.84077L6.01379 3.07227Z" stroke="currentColor" stroke-width="1.5"/>
<path d="M18.9862 5.07227C18.9928 5.0376 18.9624 5.00717 18.9277 5.01379L14.5191 5.85484C13.0574 6.13371 12 7.41187 12 8.89996V8.89996C12 10.6121 13.3879 12 15.1 12V12C16.5881 12 17.8663 10.9426 18.1452 9.48089L18.9862 5.07227Z" stroke="currentColor" stroke-width="1.5"/>
<path d="M12 6.5V14.5" stroke="currentColor" stroke-width="1.5"/>
<path d="M5.97466 17.451C5.94372 17.6057 6.06204 17.75 6.2198 17.75H17.7802C17.938 17.75 18.0563 17.6057 18.0253 17.451L17.5057 14.8529C17.4356 14.5023 17.1278 14.25 16.7703 14.25H7.22971C6.8722 14.25 6.56438 14.5023 6.49427 14.8529L5.97466 17.451Z" stroke="currentColor" stroke-width="1.5"/>
<path d="M7.60053 22.0411C7.62062 22.1616 7.72492 22.25 7.84713 22.25H16.2756C16.4 22.25 16.5055 22.1585 16.523 22.0354L17.1352 17.75H6.88535L7.60053 22.0411Z" stroke="currentColor" stroke-width="1.5"/>
</svg>
