<svg width="26" height="24" viewBox="0 0 26 24" fill="none" xmlns="http://www.w3.org/2000/svg">
<path fill-rule="evenodd" clip-rule="evenodd" d="M1 15.4992C1 12.6868 4.00033 11.7491 13 11.7491C22.001 11.7491 25 12.6868 25 15.4992C25 18.3115 22.001 19.2492 13 19.2492C4.00033 19.2492 1 18.3115 1 15.4992Z" stroke="currentColor" stroke-width="1.5" stroke-linecap="round" stroke-linejoin="round"/>
<path fill-rule="evenodd" clip-rule="evenodd" d="M13 10.1416C13 7.32922 14.091 6.3916 17.3636 6.3916C20.6367 6.3916 21.7273 7.32922 21.7273 10.1416C21.7273 12.954 20.6367 13.8916 17.3636 13.8916C14.091 13.8916 13 12.954 13 10.1416Z" fill="white" stroke="currentColor" stroke-width="1.5" stroke-linecap="round" stroke-linejoin="round"/>
<path fill-rule="evenodd" clip-rule="evenodd" d="M4.27344 10.1416C4.27344 7.32922 5.36447 6.3916 8.63707 6.3916C11.9102 6.3916 13.0007 7.32922 13.0007 10.1416C13.0007 12.954 11.9102 13.8916 8.63707 13.8916C5.36447 13.8916 4.27344 12.954 4.27344 10.1416Z" fill="white" stroke="currentColor" stroke-width="1.5" stroke-linecap="round" stroke-linejoin="round"/>
<path d="M3.89443 21.2622L4.4207 19.3332" stroke="currentColor" stroke-width="1.5" stroke-linecap="round" stroke-linejoin="round"/>
<path d="M21.7028 21.2624L21.1766 19.3334" stroke="currentColor" stroke-width="1.5" stroke-linecap="round" stroke-linejoin="round"/>
</svg>
