<svg width="24" height="24" viewBox="0 0 24 24" fill="none" xmlns="http://www.w3.org/2000/svg">
<path fill-rule="evenodd" clip-rule="evenodd" d="M11.9904 20.3686C8.75137 20.3686 5.98438 19.8786 5.98438 17.9166C5.98438 15.9546 8.73338 14.2466 11.9904 14.2466C15.2294 14.2466 17.9964 15.9386 17.9964 17.8996C17.9964 19.8606 15.2474 20.3686 11.9904 20.3686Z" stroke="#11142D" stroke-width="1.5" stroke-linecap="round" stroke-linejoin="round"/>
<path fill-rule="evenodd" clip-rule="evenodd" d="M11.9906 11.449C14.1166 11.449 15.8406 9.726 15.8406 7.6C15.8406 5.474 14.1166 3.75 11.9906 3.75C9.86464 3.75 8.14064 5.474 8.14064 7.6C8.13464 9.718 9.84464 11.442 11.9636 11.449H11.9906Z" stroke="#11142D" stroke-width="1.5" stroke-linecap="round" stroke-linejoin="round"/>
<path d="M18.3808 10.392C19.6178 10.061 20.5298 8.93302 20.5298 7.59002C20.5298 6.18902 19.5368 5.01902 18.2148 4.74902" stroke="#11142D" stroke-width="1.5" stroke-linecap="round" stroke-linejoin="round"/>
<path d="M18.9648 13.5449C20.7188 13.5449 22.2168 14.7339 22.2168 15.7959C22.2168 16.4209 21.6998 17.1019 20.9158 17.2859" stroke="#11142D" stroke-width="1.5" stroke-linecap="round" stroke-linejoin="round"/>
<path d="M5.60313 10.392C4.36513 10.061 3.45312 8.93302 3.45312 7.59002C3.45312 6.18902 4.44713 5.01902 5.76813 4.74902" stroke="#11142D" stroke-width="1.5" stroke-linecap="round" stroke-linejoin="round"/>
<path d="M5.02153 13.5449C3.26753 13.5449 1.76953 14.7339 1.76953 15.7959C1.76953 16.4209 2.28653 17.1019 3.07153 17.2859" stroke="#11142D" stroke-width="1.5" stroke-linecap="round" stroke-linejoin="round"/>
</svg>
