<svg width="24" height="24" viewBox="0 0 24 24" fill="none" xmlns="http://www.w3.org/2000/svg">
<path fill-rule="evenodd" clip-rule="evenodd" d="M0.857178 11.9983C0.857178 3.64058 3.64334 0.855469 11.9994 0.855469C13.0976 0.855469 14.0995 0.903556 15.0116 1.00605C16.2163 1.14143 18.4061 3.16128 19.2278 3.98092C20.4325 5.1824 22.7895 7.58537 22.8846 8.18611C23.0614 9.30323 23.1429 10.5693 23.1429 11.9983C23.1429 20.3561 20.3567 23.1412 11.9994 23.1412C3.64334 23.1412 0.857178 20.3561 0.857178 11.9983Z" fill="#FF754C"/>
<g style="mix-blend-mode:difference" opacity="0.2">
<path d="M15.2144 4.26249C15.2144 6.37767 16.9333 8.09106 19.0542 8.09106H22.8512C22.5859 7.37695 20.3723 5.12133 19.2176 3.96965C18.4422 3.19627 16.4489 1.35431 15.2144 1.03516V4.26249Z" fill="#FF754C"/>
</g>
<path d="M16.7759 10.6791C17.0223 10.6791 17.1429 10.4702 17.1429 10.2677C17.1429 10.058 17.0171 9.85547 16.7759 9.85547H15.3728C15.0985 9.85547 14.9456 10.0766 14.9456 10.3206V13.676C14.9456 13.9752 15.1206 14.1412 15.3574 14.1412C15.5927 14.1412 15.7685 13.9752 15.7685 13.676V12.7551H16.6171C16.8804 12.7551 17.012 12.5454 17.012 12.3372C17.012 12.1333 16.8804 11.9307 16.6171 11.9307H15.7685V10.6791H16.7759ZM12.0335 9.85547H11.0069C10.7282 9.85547 10.5303 10.0415 10.5303 10.3177V13.6789C10.5303 14.0217 10.8149 14.129 11.0186 14.129H12.0959C13.3711 14.129 14.2131 13.3126 14.2131 12.0523C14.2124 10.7199 13.4197 9.85547 12.0335 9.85547ZM12.0828 13.3004H11.4569V10.6842H12.021C12.8748 10.6842 13.2461 11.2416 13.2461 12.0109C13.2461 12.7308 12.8813 13.3004 12.0828 13.3004ZM8.32205 9.85547H7.30504C7.0175 9.85547 6.85718 10.0401 6.85718 10.3206V13.676C6.85718 13.9752 7.04101 14.1412 7.28807 14.1412C7.53514 14.1412 7.71897 13.9752 7.71897 13.676V12.6964H8.35652C9.14336 12.6964 9.79271 12.1539 9.79271 11.2816C9.79279 10.428 9.16627 9.85547 8.32205 9.85547ZM8.30516 11.9093H7.71904V10.6434H8.30516C8.66697 10.6434 8.89714 10.9181 8.89714 11.2767C8.89638 11.6345 8.66697 11.9093 8.30516 11.9093Z" fill="white"/>
</svg>
