<svg width="24" height="24" viewBox="0 0 24 24" fill="none" xmlns="http://www.w3.org/2000/svg">
<path fill-rule="evenodd" clip-rule="evenodd" d="M6.19566 6.90998C6.50092 6.64093 6.84457 6.33622 7.22733 5.98172C7.47543 5.78137 7.72863 5.56569 7.98994 5.3431L7.98995 5.34309L7.99004 5.34301L7.99011 5.34296C8.49479 4.91305 9.02975 4.45736 9.61669 4.03655C10.5175 3.39072 11.3217 3 11.9688 3C12.6182 3 13.4338 3.39088 14.3467 4.03576C14.9604 4.46925 15.5276 4.94774 16.0567 5.39399L16.0567 5.39401C16.3 5.59923 16.5352 5.79763 16.7631 5.98169C17.1459 6.3362 17.4895 6.64091 17.7947 6.90996L17.9207 7.02097L17.9208 7.02103C18.1799 7.24922 18.4049 7.44739 18.607 7.63395C19.0745 8.0656 19.3657 8.3879 19.5709 8.74611C19.9824 9.46442 20.1394 10.4772 20.1394 13.1183C20.1394 15.0249 20.0252 16.3889 19.7689 17.375C19.5178 18.3416 19.1457 18.8876 18.6586 19.2372C18.1476 19.604 17.4131 19.826 16.2932 19.9414C15.1746 20.0567 13.7782 20.0576 11.9948 20.0576C10.2113 20.0576 8.8149 20.0567 7.69629 19.9414C6.57648 19.826 5.84192 19.604 5.33092 19.2372C4.84385 18.8876 4.47174 18.3416 4.22059 17.375C3.96433 16.3889 3.8501 15.0249 3.8501 13.1183C3.8501 10.4773 4.00737 9.46452 4.41901 8.74623C4.6243 8.38799 4.91561 8.06567 5.38325 7.634C5.58519 7.44759 5.81002 7.24961 6.06886 7.02168L6.06888 7.02166L6.19566 6.90998ZM11.9688 1.5C10.813 1.5 9.6719 2.15129 8.74269 2.81749C8.10994 3.27113 7.47407 3.81173 6.94061 4.26526L6.9406 4.26527L6.94052 4.26533C6.68936 4.47886 6.46091 4.67309 6.26617 4.82984C6.25254 4.84081 6.2393 4.85226 6.22648 4.86415C5.85025 5.21306 5.51163 5.5134 5.20384 5.78469L5.07916 5.89451L5.07913 5.89454C4.82164 6.12126 4.58177 6.33246 4.36583 6.5318C3.86415 6.99489 3.43803 7.4412 3.11757 8.00041C2.47768 9.117 2.3501 10.5344 2.3501 13.1183C2.3501 15.0563 2.46308 16.5758 2.7688 17.7523C3.07962 18.9484 3.60425 19.8442 4.45623 20.4557C5.28428 21.0501 6.33108 21.3087 7.54249 21.4335C8.74653 21.5576 10.2188 21.5576 11.9577 21.5576H11.9577H11.9577H11.9578H11.9948H12.0318H12.0318H12.0318H12.0319C13.7707 21.5576 15.243 21.5576 16.447 21.4335C17.6585 21.3087 18.7052 21.0501 19.5333 20.4557C20.3853 19.8442 20.9099 18.9484 21.2207 17.7523C21.5265 16.5758 21.6394 15.0563 21.6394 13.1183C21.6394 10.5344 21.5121 9.1171 20.8725 8.00053C20.5522 7.44129 20.1262 6.99496 19.6245 6.53184C19.4084 6.3323 19.1683 6.12087 18.9105 5.89389L18.7866 5.78471C18.4788 5.51341 18.1402 5.21306 17.764 4.86415C17.7512 4.8523 17.738 4.84089 17.7244 4.82995C17.5381 4.67991 17.324 4.49945 17.09 4.30226C16.5392 3.83811 15.8785 3.28131 15.2122 2.81062C14.2714 2.14603 13.1213 1.5 11.9688 1.5ZM15.0837 10.2682C15.3565 9.95646 15.3249 9.48264 15.0132 9.20988C14.7014 8.93711 14.2276 8.9687 13.9548 9.28043L8.90652 15.0499C8.63376 15.3617 8.66535 15.8355 8.97708 16.1083C9.2888 16.381 9.76262 16.3494 10.0354 16.0377L15.0837 10.2682ZM8.35001 9.75002C8.35001 9.25296 8.75295 8.85002 9.25001 8.85002H9.26001C9.75706 8.85002 10.16 9.25296 10.16 9.75002C10.16 10.2471 9.75706 10.65 9.26001 10.65H9.25001C8.75295 10.65 8.35001 10.2471 8.35001 9.75002ZM14.75 14.85C14.253 14.85 13.85 15.253 13.85 15.75C13.85 16.2471 14.253 16.65 14.75 16.65H14.76C15.2571 16.65 15.66 16.2471 15.66 15.75C15.66 15.253 15.2571 14.85 14.76 14.85H14.75Z" fill="url(#paint0_linear)"/>
<defs>
<linearGradient id="paint0_linear" x1="2.3501" y1="1.5" x2="22.3924" y2="20.7746" gradientUnits="userSpaceOnUse">
<stop stop-color="#43B5E9"/>
<stop offset="1" stop-color="#8CCC98"/>
</linearGradient>
</defs>
</svg>
