<svg width="32" height="32" viewBox="0 0 32 32" fill="none" xmlns="http://www.w3.org/2000/svg">
<g id="Property 1=Icon_Home">
<path id="Union" fill-rule="evenodd" clip-rule="evenodd" d="M7.7666 9.3109C8.19132 8.93656 8.66809 8.5138 9.19903 8.02187C9.53387 7.75169 9.88189 7.45533 10.2442 7.14682L10.2442 7.14681C10.9503 6.54553 11.7105 5.89812 12.533 5.30848C13.7875 4.40903 14.9678 3.81689 15.9633 3.81689C16.9611 3.81689 18.1567 4.40821 19.4279 5.30621C20.2887 5.9143 21.0926 6.5923 21.831 7.21506L21.8311 7.21511L21.8311 7.21514C22.1683 7.49954 22.4919 7.77241 22.8009 8.02183C23.3319 8.51377 23.8086 8.93653 24.2333 9.31088L24.4076 9.46441L24.4076 9.46443C24.7667 9.78064 25.0816 10.058 25.3646 10.3192C26.0194 10.9238 26.4493 11.3947 26.756 11.9303C27.3707 13.0033 27.5827 14.4858 27.5827 18.1368C27.5827 20.7866 27.4245 22.708 27.0596 24.1122C26.6999 25.4967 26.1544 26.3214 25.4085 26.8568C24.6387 27.4094 23.5598 27.7243 21.9893 27.8862C20.4201 28.048 18.4668 28.0489 15.9993 28.0489C13.5319 28.0489 11.5786 28.048 10.0094 27.8862C8.43892 27.7243 7.36003 27.4094 6.5902 26.8568C5.84429 26.3214 5.29884 25.4967 4.93905 24.1122C4.57417 22.708 4.41602 20.7866 4.41602 18.1368C4.41602 14.4859 4.62836 13.0034 5.24325 11.9304C5.55017 11.3948 5.98016 10.9239 6.63517 10.3193C6.91788 10.0583 7.23253 9.78124 7.59118 9.46543L7.7666 9.3109ZM15.9633 2.31689C14.459 2.31689 12.9419 3.1696 11.659 4.08941C10.7908 4.71187 9.92964 5.44414 9.19472 6.06908L9.19472 6.06908L9.19471 6.06909L9.19469 6.06911L9.19469 6.06911L9.19459 6.06919C8.84232 6.36875 8.51905 6.64364 8.2379 6.86997C8.22427 6.88094 8.21104 6.89238 8.19821 6.90427C7.67379 7.39061 7.20206 7.80901 6.77478 8.18561L6.60149 8.33824C6.24418 8.65286 5.91447 8.94317 5.61774 9.21708C4.9287 9.85313 4.3639 10.448 3.94181 11.1846C3.09866 12.6558 2.91602 14.5429 2.91602 18.1368C2.91602 20.818 3.07292 22.8949 3.48727 24.4894C3.90672 26.1036 4.60469 27.278 5.7155 28.0754C6.80239 28.8556 8.19353 29.207 9.85556 29.3783C11.5102 29.5489 13.5393 29.5489 15.9616 29.5489H15.9616H15.9616H15.9616H15.9993H16.0371H16.0371H16.0371H16.0371C18.4594 29.5489 20.4885 29.5489 22.1431 29.3783C23.8052 29.207 25.1963 28.8556 26.2832 28.0754C27.394 27.278 28.092 26.1036 28.5114 24.4894C28.9258 22.8949 29.0827 20.818 29.0827 18.1368C29.0827 14.543 28.9004 12.6559 28.0576 11.1847C27.6357 10.4481 27.071 9.85321 26.3821 9.21713C26.0852 8.94304 25.7553 8.65255 25.3978 8.33771L25.3977 8.3376L25.3976 8.33749L25.3974 8.33738L25.2252 8.18563C24.7979 7.80902 24.3262 7.39062 23.8018 6.90427C23.789 6.89242 23.7758 6.88101 23.7622 6.87007C23.495 6.65489 23.1926 6.39998 22.8646 6.12355L22.8644 6.12341C22.1042 5.48269 21.2068 4.72637 20.2933 4.08107C18.9942 3.16336 17.4641 2.31689 15.9633 2.31689ZM20.0644 13.994C20.3372 13.6823 20.3056 13.2085 19.9939 12.9357C19.6822 12.6629 19.2083 12.6945 18.9356 13.0062L11.9356 21.0062C11.6628 21.318 11.6944 21.7918 12.0061 22.0646C12.3178 22.3373 12.7917 22.3057 13.0644 21.994L20.0644 13.994ZM11.5 13.5001C11.5 14.0524 11.9477 14.5001 12.5 14.5001C13.0523 14.5001 13.5 14.0524 13.5 13.5001C13.5 12.9478 13.0523 12.5001 12.5 12.5001C11.9477 12.5001 11.5 12.9478 11.5 13.5001ZM19.5 22.5001C18.9477 22.5001 18.5 22.0524 18.5 21.5001C18.5 20.9478 18.9477 20.5001 19.5 20.5001C20.0523 20.5001 20.5 20.9478 20.5 21.5001C20.5 22.0524 20.0523 22.5001 19.5 22.5001Z" fill="currentColor"/>
</g>
<defs>
<linearGradient id="paint0_linear" x1="2.91602" y1="2.31689" x2="30.1263" y2="28.4627" gradientUnits="userSpaceOnUse">
<stop stop-color="currentcColor"/>
<stop offset="1" stop-color="currentcColor"/>
</linearGradient>
</defs>
</svg>
