<svg width="24" height="24" viewBox="0 0 24 24" fill="none" xmlns="http://www.w3.org/2000/svg">
<path fill-rule="evenodd" clip-rule="evenodd" d="M12 19.9991C7.95464 19.9991 4.5 19.3696 4.5 16.8484C4.5 14.3273 7.93273 12 12 12C16.0454 12 19.5 14.3048 19.5 16.8259C19.5 19.346 16.0673 19.9991 12 19.9991Z" stroke="url(#paint0_linear)" stroke-width="1.5" stroke-linecap="round" stroke-linejoin="round"/>
<path fill-rule="evenodd" clip-rule="evenodd" d="M12.0004 12C14.2095 12 16 10.2095 16 8.00041C16 5.79132 14.2095 4 12.0004 4C9.79134 4 8.00002 5.79132 8.00002 8.00041C7.99256 10.2021 9.77061 11.9925 11.9722 12C11.9822 12 11.9913 12 12.0004 12Z" stroke="url(#paint1_linear)" stroke-width="1.5" stroke-linecap="round" stroke-linejoin="round"/>
<defs>
<linearGradient id="paint0_linear" x1="4.5" y1="12" x2="11.1424" y2="24.4559" gradientUnits="userSpaceOnUse">
<stop stop-color="currentColor"/>
<stop offset="1" stop-color="currentColor"/>
</linearGradient>
<linearGradient id="paint1_linear" x1="8" y1="4" x2="16" y2="12" gradientUnits="userSpaceOnUse">
<stop stop-color="currentColor"/>
<stop offset="1" stop-color="currentColor"/>
</linearGradient>
</defs>
</svg>
