<svg width="20" height="20" viewBox="0 0 20 20" fill="none" xmlns="http://www.w3.org/2000/svg">
<path d="M12.0007 2.58594C11.5864 2.58594 11.2507 2.92172 11.2507 3.33594C11.2507 3.75015 11.5864 4.08594 12.0007 4.08594V2.58594ZM13.334 15.9193C12.9198 15.9193 12.584 16.2551 12.584 16.6693C12.584 17.0835 12.9198 17.4193 13.334 17.4193V15.9193ZM7.66732 4.08594C8.08153 4.08594 8.41732 3.75015 8.41732 3.33594C8.41732 2.92172 8.08153 2.58594 7.66732 2.58594V4.08594ZM2.58398 12.0026C2.58398 12.4168 2.91977 12.7526 3.33398 12.7526C3.7482 12.7526 4.08398 12.4168 4.08398 12.0026H2.58398ZM4.08398 11.3359C4.08398 10.9217 3.7482 10.5859 3.33398 10.5859C2.91977 10.5859 2.58398 10.9217 2.58398 11.3359H4.08398ZM10.531 14.5329C10.8239 14.24 10.8239 13.7652 10.531 13.4723C10.2381 13.1794 9.76321 13.1794 9.47032 13.4723L10.531 14.5329ZM12.584 12.0026C12.584 12.4168 12.9198 12.7526 13.334 12.7526C13.7482 12.7526 14.084 12.4168 14.084 12.0026H12.584ZM12.6673 8.08594C13.0815 8.08594 13.4173 7.75015 13.4173 7.33594C13.4173 6.92172 13.0815 6.58594 12.6673 6.58594V8.08594ZM3.33398 6.58594C2.91977 6.58594 2.58398 6.92172 2.58398 7.33594C2.58398 7.75015 2.91977 8.08594 3.33398 8.08594L3.33398 6.58594ZM7.80539 16.1979L8.33572 16.7282L7.80539 16.1979ZM12.0007 4.08594H13.334V2.58594H12.0007V4.08594ZM15.9173 6.66927V13.3359H17.4173V6.66927H15.9173ZM15.9173 13.3359C15.9173 14.7627 14.7607 15.9193 13.334 15.9193V17.4193C15.5891 17.4193 17.4173 15.5911 17.4173 13.3359H15.9173ZM13.334 4.08594C14.7607 4.08594 15.9173 5.24254 15.9173 6.66927H17.4173C17.4173 4.41411 15.5891 2.58594 13.334 2.58594V4.08594ZM7.66732 2.58594H6.66732V4.08594H7.66732V2.58594ZM2.58398 6.66927V12.0026H4.08398V6.66927H2.58398ZM6.66732 2.58594C4.41216 2.58594 2.58398 4.41411 2.58398 6.66927H4.08398C4.08398 5.24254 5.24058 4.08594 6.66732 4.08594V2.58594ZM4.08398 13.3359V11.3359H2.58398V13.3359H4.08398ZM6.66732 15.9193C5.24058 15.9193 4.08398 14.7627 4.08398 13.3359H2.58398C2.58398 15.5911 4.41216 17.4193 6.66732 17.4193V15.9193ZM8.33572 16.7282L10.531 14.5329L9.47032 13.4723L7.27506 15.6675L8.33572 16.7282ZM12.584 3.33594V12.0026H14.084V3.33594H12.584ZM12.6673 6.58594L3.33398 6.58594L3.33398 8.08594L12.6673 8.08594V6.58594ZM6.66732 17.4193C7.29309 17.4193 7.89323 17.1707 8.33572 16.7282L7.27506 15.6675C7.11388 15.8287 6.89526 15.9193 6.66732 15.9193V17.4193Z" fill="#11142D"/>
</svg>
