<svg width="54" height="48" viewBox="0 0 54 48" fill="none" xmlns="http://www.w3.org/2000/svg">
  <path d="M42.8651 43.1206C41.3725 43.9704 39.5987 44.1968 37.9353 43.7498L15.9645 37.9066C12.4951 36.9839 10.4339 33.4528 11.3607 30.0196L15.617 14.2532C16.0139 12.9096 17.0013 11.8155 18.3051 11.2742L32.7051 4.9718C35.2249 3.76129 38.2614 4.51071 39.917 6.75172L49.4547 19.5585C50.2557 20.6865 50.511 22.1071 50.1518 23.4377L45.8911 39.2202C45.4464 40.8674 44.3577 42.2708 42.8651 43.1206Z" fill="url(#paint0_linear)"/>
  <path d="M0.50014 21.8494L0.5 21.8494V21.8612V39.8749C0.5 44.0806 3.95806 47.4773 8.20817 47.4773H33.4168C35.4573 47.4826 37.4175 46.6876 38.8644 45.2656C40.3116 43.8433 41.1263 41.9105 41.1263 39.8933V21.8612C41.1262 20.1901 40.3744 18.6071 39.0769 17.5378L39.0769 17.5377L39.0681 17.5307L25.1574 6.58387C25.1572 6.58367 25.157 6.58348 25.1567 6.58329C22.5519 4.51773 18.8231 4.58249 16.2937 6.73671L2.70944 17.5292C1.35312 18.567 0.540342 20.153 0.50014 21.8494Z" fill="url(#paint1_radial)"/>
  <path d="M0.50014 21.8494L0.5 21.8494V21.8612V39.8749C0.5 44.0806 3.95806 47.4773 8.20817 47.4773H33.4168C35.4573 47.4826 37.4175 46.6876 38.8644 45.2656C40.3116 43.8433 41.1263 41.9105 41.1263 39.8933V21.8612C41.1262 20.1901 40.3744 18.6071 39.0769 17.5378L39.0769 17.5377L39.0681 17.5307L25.1574 6.58387C25.1572 6.58367 25.157 6.58348 25.1567 6.58329C22.5519 4.51773 18.8231 4.58249 16.2937 6.73671L2.70944 17.5292C1.35312 18.567 0.540342 20.153 0.50014 21.8494Z" fill="url(#paint2_linear)"/>
  <path d="M0.50014 21.8494L0.5 21.8494V21.8612V39.8749C0.5 44.0806 3.95806 47.4773 8.20817 47.4773H33.4168C35.4573 47.4826 37.4175 46.6876 38.8644 45.2656C40.3116 43.8433 41.1263 41.9105 41.1263 39.8933V21.8612C41.1262 20.1901 40.3744 18.6071 39.0769 17.5378L39.0769 17.5377L39.0681 17.5307L25.1574 6.58387C25.1572 6.58367 25.157 6.58348 25.1567 6.58329C22.5519 4.51773 18.8231 4.58249 16.2937 6.73671L2.70944 17.5292C1.35312 18.567 0.540342 20.153 0.50014 21.8494Z" stroke="url(#paint3_radial)" stroke-linecap="round" stroke-linejoin="round"/>
  <path d="M0.50014 21.8494L0.5 21.8494V21.8612V39.8749C0.5 44.0806 3.95806 47.4773 8.20817 47.4773H33.4168C35.4573 47.4826 37.4175 46.6876 38.8644 45.2656C40.3116 43.8433 41.1263 41.9105 41.1263 39.8933V21.8612C41.1262 20.1901 40.3744 18.6071 39.0769 17.5378L39.0769 17.5377L39.0681 17.5307L25.1574 6.58387C25.1572 6.58367 25.157 6.58348 25.1567 6.58329C22.5519 4.51773 18.8231 4.58249 16.2937 6.73671L2.70944 17.5292C1.35312 18.567 0.540342 20.153 0.50014 21.8494Z" stroke="url(#paint4_linear)" stroke-linecap="round" stroke-linejoin="round"/>
  <path d="M0.50014 21.8494L0.5 21.8494V21.8612V39.8749C0.5 44.0806 3.95806 47.4773 8.20817 47.4773H33.4168C35.4573 47.4826 37.4175 46.6876 38.8644 45.2656C40.3116 43.8433 41.1263 41.9105 41.1263 39.8933V21.8612C41.1262 20.1901 40.3744 18.6071 39.0769 17.5378L39.0769 17.5377L39.0681 17.5307L25.1574 6.58387C25.1572 6.58367 25.157 6.58348 25.1567 6.58329C22.5519 4.51773 18.8231 4.58249 16.2937 6.73671L2.70944 17.5292C1.35312 18.567 0.540342 20.153 0.50014 21.8494Z" stroke="url(#paint5_linear)" stroke-linecap="round" stroke-linejoin="round"/>
  <path d="M0.50014 21.8494L0.5 21.8494V21.8612V39.8749C0.5 44.0806 3.95806 47.4773 8.20817 47.4773H33.4168C35.4573 47.4826 37.4175 46.6876 38.8644 45.2656C40.3116 43.8433 41.1263 41.9105 41.1263 39.8933V21.8612C41.1262 20.1901 40.3744 18.6071 39.0769 17.5378L39.0769 17.5377L39.0681 17.5307L25.1574 6.58387C25.1572 6.58367 25.157 6.58348 25.1567 6.58329C22.5519 4.51773 18.8231 4.58249 16.2937 6.73671L2.70944 17.5292C1.35312 18.567 0.540342 20.153 0.50014 21.8494Z" stroke="url(#paint6_linear)" stroke-linecap="round" stroke-linejoin="round"/>
  <path d="M22.688 21.4407V34.9316H19.7971V25.1025H17.4844V23.2716C18.0369 23.2073 18.493 23.0789 18.8527 22.8861C19.2125 22.6806 19.5016 22.4686 19.72 22.2501C19.9641 22.006 20.1504 21.7362 20.2789 21.4407H22.688Z" fill="white"/>
  <defs>
    <linearGradient id="paint0_linear" x1="54.1406" y1="9.22205" x2="6.53881" y2="29.1216" gradientUnits="userSpaceOnUse">
      <stop stop-color="#3F8CFF"/>
      <stop offset="1" stop-color="#477FFF"/>
    </linearGradient>
    <radialGradient id="paint1_radial" cx="0" cy="0" r="1" gradientUnits="userSpaceOnUse" gradientTransform="translate(1 41.0004) rotate(-22.4162) scale(43.2695 191.862)">
      <stop stop-color="#AECCFF"/>
      <stop offset="1" stop-color="#478DFF"/>
    </radialGradient>
    <linearGradient id="paint2_linear" x1="14" y1="3.00035" x2="22.5" y2="22.5004" gradientUnits="userSpaceOnUse">
      <stop stop-color="#A9CBFF" stop-opacity="0.4"/>
      <stop offset="1" stop-color="#A9CBFF" stop-opacity="0"/>
    </linearGradient>
    <radialGradient id="paint3_radial" cx="0" cy="0" r="1" gradientUnits="userSpaceOnUse" gradientTransform="translate(-9.5 21.0003) rotate(0.584631) scale(49.0025 51.1417)">
      <stop stop-color="#DFEAFF"/>
      <stop offset="1" stop-color="#5B96FF"/>
    </radialGradient>
    <linearGradient id="paint4_linear" x1="1" y1="11.0004" x2="27.5" y2="33.5003" gradientUnits="userSpaceOnUse">
      <stop stop-color="#E0EBFF"/>
      <stop offset="1" stop-color="#ADCAFF" stop-opacity="0"/>
    </linearGradient>
    <linearGradient id="paint5_linear" x1="21" y1="47.0003" x2="25" y2="18.0004" gradientUnits="userSpaceOnUse">
      <stop stop-color="#E8F0FF" stop-opacity="0.39"/>
      <stop offset="1" stop-color="#ADCAFF" stop-opacity="0"/>
    </linearGradient>
    <linearGradient id="paint6_linear" x1="3" y1="47.0004" x2="29.5" y2="22.0004" gradientUnits="userSpaceOnUse">
      <stop stop-color="#E8F0FF"/>
      <stop offset="1" stop-color="#ADCAFF" stop-opacity="0"/>
    </linearGradient>
  </defs>
</svg>
