<svg width="24" height="24" viewBox="0 0 24 24" fill="none" xmlns="http://www.w3.org/2000/svg">
<rect x="5.41797" y="4" width="14.0255" height="4.67518" rx="2.33759" stroke="#11142D" stroke-width="1.5"/>
<rect x="12.8203" y="15.688" width="4.67518" height="2.33759" rx="1.1688" transform="rotate(90 12.8203 15.688)" stroke="#11142D" stroke-width="1.5"/>
<path d="M18.9248 6.3374L19.5027 6.3374C20.3311 6.3374 21.0027 7.00898 21.0027 7.8374V9.57098C21.0027 11.2278 19.6596 12.571 18.0027 12.571H13.6523C12.5478 12.571 11.6523 13.4664 11.6523 14.571V15.6878" stroke="#11142D" stroke-width="1.5"/>
<path d="M5.66016 10.5454L7.03754 12.5722C7.48687 13.2334 7.403 14.1206 6.83773 14.6859V14.6859C6.18737 15.3362 5.13294 15.3362 4.48258 14.6859V14.6859C3.91732 14.1206 3.83345 13.2334 4.28277 12.5722L5.66016 10.5454Z" stroke="#11142D" stroke-width="1.5"/>
</svg>
