<svg width="40" height="40" viewBox="0 0 40 40" fill="none" xmlns="http://www.w3.org/2000/svg">
<g filter="url(#filter0_i_25008_83393)">
<circle cx="20" cy="20" r="20" fill="white"/>
</g>
<path d="M13.2734 18.0801H14.6612L15.78 20.9619L16.8896 18.0801H18.2284V21.9225H17.3389V18.9842L16.1804 21.9225H15.2664L14.1079 19.002V21.9225H13.2765V18.0801H13.2734Z" fill="#007BFB"/>
<path d="M24.4609 18.0801H27.5208V21.9225H26.5732V18.889H25.326C25.3168 19.4273 25.3015 20.1529 25.2863 20.5574C25.2526 21.5656 24.95 21.9225 24.0636 21.9225H23.6387V21.1135H23.874C24.2745 21.1135 24.4029 20.9381 24.4304 20.3909C24.4518 19.802 24.4609 18.6362 24.4609 18.0801Z" fill="#007BFB"/>
<path d="M32.8359 18.0801H36.4337V18.889H35.1041V21.9225H34.1656V18.889H32.8359V18.0801Z" fill="#007BFB"/>
<path d="M11.0271 18H10.6878C9.87465 18 9.25719 18.4818 9.11658 19.1985L9.98164 19.3323C10.1009 18.9903 10.3729 18.7584 10.7153 18.7435C10.7795 18.7405 10.8467 18.7405 10.9109 18.7435C11.4214 18.7613 11.6537 18.9993 11.6537 19.5881C10.6847 19.5881 10.0244 19.5435 9.53535 19.8558C9.13798 20.1115 8.9668 20.3941 8.9668 20.8401C8.9668 21.4885 9.48339 22 10.3179 22H10.434C11.024 22 11.5008 21.777 11.6934 21.5063V21.9197H12.5646V19.6059C12.5677 18.7138 12.0755 18 11.0271 18ZM10.4952 21.2506C10.1253 21.2416 9.91133 21.0305 9.91133 20.7688C9.91133 20.5517 10.0122 20.4416 10.1467 20.3673C10.2873 20.287 10.4707 20.2602 10.7519 20.2513C11.024 20.2424 11.2441 20.2305 11.669 20.2305C11.669 20.8848 11.2441 21.2149 10.7183 21.2506C10.645 21.2535 10.5716 21.2535 10.4952 21.2506Z" fill="#007BFB"/>
<path d="M32.1274 20.2599V19.9001C32.1274 18.6599 31.3265 18.0205 30.2934 18.0205H30.0916C28.9789 18.0205 28.2698 18.7581 28.2331 19.7989C28.227 19.9506 28.227 20.016 28.2331 20.2242C28.2576 21.2592 29.0065 21.9581 30.003 21.9848C30.1864 21.9908 30.1619 21.9908 30.3331 21.9848C31.2012 21.961 31.8584 21.4733 32.054 20.8369L31.2134 20.6941C31.0086 21.0926 30.6174 21.2473 30.3025 21.2621C30.2322 21.2651 30.1619 21.2651 30.0886 21.2621C29.5964 21.2413 29.1593 20.8696 29.1593 20.3253V20.2659L32.1274 20.2599ZM30.0763 18.7432C30.1527 18.7372 30.2322 18.7372 30.3117 18.7432C30.7244 18.764 31.1584 19.0257 31.2012 19.5432H29.1685C29.2143 19.0792 29.5964 18.77 30.0763 18.7432Z" fill="#007BFB"/>
<path d="M22.9292 19.6621C22.9078 18.7313 22.1375 18.0205 21.1196 18.0205H20.7497C19.7318 18.0205 18.9615 18.7343 18.9401 19.6681C18.934 19.9268 18.934 20.0785 18.9401 20.3372C18.9615 21.2711 19.7318 21.9848 20.7497 21.9848H21.1196C22.1375 21.9848 22.9078 21.274 22.9292 20.3372C22.9323 20.0755 22.9323 19.9209 22.9292 19.6621ZM21.9969 20.2867C21.9847 20.8309 21.5812 21.1997 21.034 21.2265C20.9668 21.2324 20.8995 21.2324 20.8323 21.2265C20.282 21.1997 19.8816 20.8309 19.8694 20.2867C19.8633 20.0607 19.8633 19.9328 19.8694 19.7068C19.8816 19.1685 20.282 18.7997 20.8323 18.7729C20.8995 18.767 20.9668 18.767 21.034 18.7729C21.5812 18.7997 21.9877 19.1685 21.9969 19.7127C22.003 19.9387 22.003 20.0636 21.9969 20.2867Z" fill="#007BFB"/>
<path d="M7.33369 20.5662C7.22365 20.9231 6.9302 21.167 6.53282 21.2205C6.42584 21.2354 6.31885 21.2354 6.21492 21.2205C5.72278 21.1551 5.37737 20.7952 5.36514 20.2897C5.35903 20.0636 5.35903 19.9357 5.36514 19.7097C5.37737 19.2012 5.74112 18.8294 6.24243 18.7759C6.32496 18.767 6.40444 18.767 6.48697 18.7759C6.9088 18.8205 7.22365 19.0673 7.33981 19.4391L8.25683 19.2666C8.05814 18.538 7.37954 18.0205 6.51142 18.0205H6.24854C5.22759 18.0205 4.45728 18.7313 4.43589 19.6651C4.43283 19.9239 4.43283 20.0755 4.43589 20.3343C4.45728 21.2681 5.22759 21.9818 6.24549 21.9818H6.50837C7.39483 21.9818 8.07954 21.4436 8.25989 20.6882L7.33369 20.5662Z" fill="#007BFB"/>
<defs>
<filter id="filter0_i_25008_83393" x="0" y="0" width="40" height="48" filterUnits="userSpaceOnUse" color-interpolation-filters="sRGB">
<feFlood flood-opacity="0" result="BackgroundImageFix"/>
<feBlend mode="normal" in="SourceGraphic" in2="BackgroundImageFix" result="shape"/>
<feColorMatrix in="SourceAlpha" type="matrix" values="0 0 0 0 0 0 0 0 0 0 0 0 0 0 0 0 0 0 127 0" result="hardAlpha"/>
<feOffset dy="8"/>
<feGaussianBlur stdDeviation="4"/>
<feComposite in2="hardAlpha" operator="arithmetic" k2="-1" k3="1"/>
<feColorMatrix type="matrix" values="0 0 0 0 0 0 0 0 0 0 0 0 0 0 0 0 0 0 0.05 0"/>
<feBlend mode="normal" in2="shape" result="effect1_innerShadow_25008_83393"/>
</filter>
</defs>
</svg>
