<svg width="64" height="52" viewBox="0 0 64 52" fill="none" xmlns="http://www.w3.org/2000/svg">
  <path d="M41.1717 41.5847C40.3138 43.0438 38.9096 44.1085 37.2688 44.5436L15.6275 50.3424C12.21 51.2581 8.7146 49.2535 7.82024 45.865L3.71301 30.3039C3.39224 28.9611 3.69839 27.5413 4.54652 26.4385L13.7542 13.9811C15.3125 11.7093 18.275 10.8581 20.7901 11.9597L35.2292 18.2171C36.4675 18.7874 37.3834 19.8758 37.73 21.189L41.8414 36.766C42.2706 38.3918 42.0296 40.1255 41.1717 41.5847Z" fill="url(#paint0_linear)"/>
  <path d="M41.1717 41.5847C40.3138 43.0438 38.9096 44.1085 37.2688 44.5436L15.6275 50.3424C12.21 51.2581 8.7146 49.2535 7.82024 45.865L3.71301 30.3039C3.39224 28.9611 3.69839 27.5413 4.54652 26.4385L13.7542 13.9811C15.3125 11.7093 18.275 10.8581 20.7901 11.9597L35.2292 18.2171C36.4675 18.7874 37.3834 19.8758 37.73 21.189L41.8414 36.766C42.2706 38.3918 42.0296 40.1255 41.1717 41.5847Z" fill="url(#paint1_linear)"/>
  <path d="M52.5374 42.4952C51.0665 43.3327 49.3185 43.5558 47.6791 43.1153L26.027 37.3569C22.6079 36.4476 20.5765 32.9676 21.4899 29.5842L25.6845 14.0465C26.0757 12.7224 27.0487 11.6441 28.3336 11.1107L42.5248 4.8997C45.0081 3.70674 48.0006 4.4453 49.6321 6.65381L59.0315 19.2749C59.8209 20.3865 60.0725 21.7865 59.7185 23.0978L55.5196 38.6514C55.0814 40.2748 54.0084 41.6578 52.5374 42.4952Z" fill="url(#paint2_linear)"/>
  <path d="M10.7775 21.5324L10.7773 21.5324V21.5442V39.2966C10.7773 43.4454 14.1886 46.7961 18.381 46.7961H43.224C45.2368 46.8012 47.1704 46.0171 48.5977 44.6143C50.0253 43.2113 50.829 41.3047 50.8289 39.3148V21.5442C50.8289 19.8952 50.087 18.3331 48.8066 17.2779L48.8067 17.2778L48.7978 17.2708L35.089 6.48271C35.0887 6.48253 35.0885 6.48235 35.0883 6.48216C32.5185 4.44441 28.84 4.50826 26.3446 6.63343L12.9575 17.2693C11.6192 18.2933 10.8172 19.8584 10.7775 21.5324Z" fill="url(#paint3_linear)"/>
  <path d="M10.7775 21.5324L10.7773 21.5324V21.5442V39.2966C10.7773 43.4454 14.1886 46.7961 18.381 46.7961H43.224C45.2368 46.8012 47.1704 46.0171 48.5977 44.6143C50.0253 43.2113 50.829 41.3047 50.8289 39.3148V21.5442C50.8289 19.8952 50.087 18.3331 48.8066 17.2779L48.8067 17.2778L48.7978 17.2708L35.089 6.48271C35.0887 6.48253 35.0885 6.48235 35.0883 6.48216C32.5185 4.44441 28.84 4.50826 26.3446 6.63343L12.9575 17.2693C11.6192 18.2933 10.8172 19.8584 10.7775 21.5324Z" fill="#FF754C" fill-opacity="0.1"/>
  <path d="M10.7775 21.5324L10.7773 21.5324V21.5442V39.2966C10.7773 43.4454 14.1886 46.7961 18.381 46.7961H43.224C45.2368 46.8012 47.1704 46.0171 48.5977 44.6143C50.0253 43.2113 50.829 41.3047 50.8289 39.3148V21.5442C50.8289 19.8952 50.087 18.3331 48.8066 17.2779L48.8067 17.2778L48.7978 17.2708L35.089 6.48271C35.0887 6.48253 35.0885 6.48235 35.0883 6.48216C32.5185 4.44441 28.84 4.50826 26.3446 6.63343L12.9575 17.2693C11.6192 18.2933 10.8172 19.8584 10.7775 21.5324Z" stroke="url(#paint4_linear)" stroke-linecap="round" stroke-linejoin="round"/>
  <path d="M25.7227 34.4249C25.7227 33.3866 25.8809 32.5066 26.1975 31.7848C26.514 31.0504 26.9066 30.4236 27.3751 29.9045C27.8436 29.3854 28.3501 28.9422 28.8945 28.575C29.4517 28.2078 29.9645 27.8596 30.433 27.5303C30.9015 27.1885 31.294 26.8403 31.6106 26.4857C31.9271 26.1312 32.0854 25.707 32.0854 25.2132C32.0854 24.6814 31.9208 24.2635 31.5916 23.9596C31.275 23.6557 30.8065 23.5038 30.1861 23.5038C29.7809 23.5038 29.4453 23.5924 29.1794 23.7697C28.9135 23.9343 28.6983 24.1179 28.5337 24.3205C28.3437 24.5484 28.1981 24.8143 28.0968 25.1182L25.7227 23.9786C25.9253 23.3962 26.2355 22.877 26.6533 22.4212C26.8306 22.2312 27.0332 22.0413 27.2611 21.8514C27.5017 21.6614 27.7739 21.4905 28.0778 21.3386C28.3817 21.1866 28.7236 21.0663 29.1035 20.9777C29.4833 20.889 29.9075 20.8447 30.376 20.8447C31.0598 20.8447 31.6865 20.9587 32.2563 21.1866C32.8388 21.4019 33.3326 21.7058 33.7378 22.0983C34.143 22.4781 34.4595 22.9277 34.6875 23.4468C34.9154 23.9659 35.0293 24.5231 35.0293 25.1182C35.0293 25.726 34.9217 26.2578 34.7065 26.7136C34.5039 27.1568 34.2316 27.562 33.8897 27.9292C33.5479 28.2837 33.168 28.613 32.7502 28.9169C32.3323 29.2081 31.9081 29.4993 31.4776 29.7905C31.0598 30.0818 30.6609 30.3857 30.281 30.7022C29.9012 31.0188 29.5846 31.3733 29.3314 31.7658H35.0293V34.4249H25.7227Z" fill="white"/>
  <defs>
    <linearGradient id="paint0_linear" x1="34.1559" y1="7.08429" x2="3.25948" y2="47.4661" gradientUnits="userSpaceOnUse">
      <stop stop-color="#39AFFD"/>
      <stop offset="1" stop-color="#477FFF"/>
    </linearGradient>
    <linearGradient id="paint1_linear" x1="34.1559" y1="7.08429" x2="3.25948" y2="47.4661" gradientUnits="userSpaceOnUse">
      <stop stop-color="#FF754C"/>
      <stop offset="1" stop-color="#FF9A7B"/>
    </linearGradient>
    <linearGradient id="paint2_linear" x1="63.6494" y1="9.08831" x2="16.738" y2="28.6993" gradientUnits="userSpaceOnUse">
      <stop stop-color="#FF754C"/>
      <stop offset="1" stop-color="#FF9A7B"/>
    </linearGradient>
    <linearGradient id="paint3_linear" x1="20" y1="11.9996" x2="47" y2="45.9996" gradientUnits="userSpaceOnUse">
      <stop stop-color="#FF9A7A"/>
      <stop offset="0.471412" stop-color="#FF8864"/>
      <stop offset="1" stop-color="#FF9A7A"/>
    </linearGradient>
    <linearGradient id="paint4_linear" x1="21" y1="8.49957" x2="50.098" y2="44.7156" gradientUnits="userSpaceOnUse">
      <stop stop-color="#FFBBA7"/>
      <stop offset="0.0001" stop-color="#FFBBA7"/>
      <stop offset="0.484245" stop-color="#FF9575"/>
      <stop offset="1" stop-color="#FFB19A"/>
    </linearGradient>
  </defs>
</svg>
