<svg width="24" height="24" viewBox="0 0 24 24" fill="none" xmlns="http://www.w3.org/2000/svg">
<path fill-rule="evenodd" clip-rule="evenodd" d="M12.0038 2C10.076 2 8.25494 2.54486 6.84781 3.15848C5.46249 3.7626 4.38869 4.47368 3.97908 4.8837C3.74481 5.11797 3.56508 5.38158 3.46388 5.77201C3.37637 6.10963 3.35453 6.52056 3.35069 7.03319C3.34755 7.45321 3.35729 7.99373 3.36985 8.68997C3.37297 8.86325 3.37627 9.04618 3.37959 9.23929C3.39634 10.2148 3.41403 11.4693 3.41403 13.0995C3.41403 16.6076 4.88653 19.041 6.70401 20.5846C8.48967 22.1011 10.6186 22.7674 12.0038 22.7674C13.3894 22.7674 15.5183 22.1011 17.3039 20.5845C19.1213 19.041 20.5935 16.6076 20.5935 13.0995C20.5935 11.4693 20.6112 10.2148 20.6279 9.2393C20.6312 9.04626 20.6345 8.8634 20.6377 8.69018L20.6377 8.68671C20.6503 7.99206 20.66 7.4526 20.6569 7.03329C20.6532 6.52069 20.6314 6.10989 20.5442 5.77242C20.4432 5.38215 20.2639 5.11853 20.0299 4.88413L20.0294 4.8837C19.6199 4.47413 18.5459 3.76286 17.1598 3.15847C15.7526 2.54486 13.9315 2 12.0038 2ZM5.04018 5.94392C5.25934 5.7244 6.13958 5.10375 7.4474 4.53343C8.7339 3.97242 10.3458 3.5 12.0038 3.5C13.6617 3.5 15.2736 3.97241 16.5602 4.53345C17.8681 5.1037 18.7489 5.72445 18.9688 5.94435C19.0486 6.02439 19.0694 6.06083 19.0919 6.14795C19.1281 6.28801 19.1532 6.53223 19.157 7.04432C19.1599 7.44276 19.1506 7.95648 19.1382 8.64796C19.135 8.82454 19.1316 9.01272 19.1282 9.21352C19.1113 10.1942 19.0935 11.4578 19.0935 13.0995C19.0935 16.1366 17.8388 18.1622 16.3329 19.4413C14.7951 20.7474 13.0042 21.2674 12.0038 21.2674C11.0039 21.2674 9.21294 20.7474 7.675 19.4412C6.16887 18.1621 4.91403 16.1365 4.91403 13.0995C4.91403 11.4578 4.8962 10.1942 4.87936 9.21353C4.87594 9.01412 4.87257 8.82716 4.86941 8.65165L4.86941 8.65136C4.85693 7.95819 4.84767 7.44346 4.85065 7.04441C4.85448 6.53236 4.87964 6.28828 4.9159 6.14836C4.93848 6.06125 4.95929 6.02481 5.03975 5.94435L5.04018 5.94392ZM15.7952 10.5551C16.088 10.2621 16.0879 9.78725 15.7949 9.49443C15.5019 9.20161 15.027 9.20173 14.7342 9.4947L11.2818 12.9489L9.87886 11.5438C9.5862 11.2507 9.11133 11.2503 8.8182 11.543C8.52508 11.8356 8.5247 12.3105 8.81736 12.6036L10.7507 14.5401C10.8914 14.6809 11.0822 14.7601 11.2813 14.7602C11.4803 14.7602 11.6712 14.6811 11.8119 14.5403L15.7952 10.5551Z" fill="url(#paint0_linear)"/>
<defs>
<linearGradient id="paint0_linear" x1="3.3501" y1="2" x2="23.7773" y2="19.0239" gradientUnits="userSpaceOnUse">
<stop stop-color="currentColor"/>
<stop offset="1" stop-color="currentColor"/>
</linearGradient>
</defs>
</svg>
