<svg width="32" height="32" viewBox="0 0 32 32" fill="none" xmlns="http://www.w3.org/2000/svg">
<path fill-rule="evenodd" clip-rule="evenodd" d="M15.9788 2.91748C13.5045 2.91748 11.1603 3.61737 9.34264 4.41C7.54682 5.19312 6.17518 6.10718 5.66977 6.61315C5.38753 6.89539 5.17723 7.20472 5.05717 7.66793C4.9508 8.07832 4.92179 8.58908 4.91679 9.25787C4.91271 9.80271 4.92535 10.504 4.94172 11.4121L4.94172 11.4122C4.9458 11.6386 4.95012 11.8779 4.95446 12.1307C4.97633 13.4044 4.99943 15.0426 4.99943 17.1715C4.99943 21.677 6.8876 24.7899 9.2116 26.7636C11.5038 28.7103 14.2301 29.5575 15.9788 29.5575C17.728 29.5575 20.4544 28.7104 22.7464 26.7636C25.0703 24.7899 26.9581 21.677 26.9581 17.1715C26.9581 15.0426 26.9812 13.4044 27.0031 12.1307C27.0075 11.8762 27.0118 11.6355 27.0159 11.4078V11.4077C27.0323 10.5018 27.0449 9.80188 27.0409 9.25797C27.036 8.58921 27.0071 8.07858 26.901 7.66834C26.7813 7.2053 26.5714 6.89595 26.2895 6.61358L26.2891 6.61315C25.7836 6.10765 24.4117 5.19339 22.615 4.40999C20.7972 3.61737 18.453 2.91748 15.9788 2.91748ZM6.73086 7.67338C7.0458 7.35793 8.22389 6.53429 9.94222 5.78496C11.6392 5.04493 13.7744 4.41748 15.9788 4.41748C18.1832 4.41748 20.3183 5.04493 22.0155 5.78497C23.7331 6.5339 24.9115 7.35723 25.228 7.67338L25.2281 7.67347C25.3561 7.80172 25.4074 7.88386 25.4488 8.04387C25.5038 8.25671 25.536 8.60075 25.541 9.269C25.5448 9.79201 25.5326 10.4662 25.5164 11.3688V11.369C25.5122 11.599 25.5078 11.8439 25.5033 12.105C25.4813 13.3837 25.4581 15.0311 25.4581 17.1715C25.4581 21.206 23.7879 23.9111 21.7754 25.6203C19.7311 27.3566 17.3428 28.0575 15.9788 28.0575C14.6154 28.0575 12.2271 27.3566 10.1826 25.6203C8.16993 23.911 6.49943 21.2059 6.49943 17.1715C6.49943 15.0311 6.4762 13.3837 6.45424 12.105C6.44979 11.8458 6.44541 11.6024 6.44129 11.3738L6.44128 11.3735C6.42499 10.4685 6.41283 9.79295 6.41674 9.26909C6.42174 8.60088 6.45406 8.25697 6.50919 8.04428C6.55063 7.8844 6.602 7.80224 6.73043 7.67381L6.73086 7.67338ZM20.7641 13.6899C21.0569 13.3969 21.0568 12.922 20.7639 12.6292C20.4709 12.3364 19.996 12.3365 19.7032 12.6295L15.0366 17.2985L13.0444 15.3031C12.7518 15.01 12.2769 15.0096 11.9838 15.3023C11.6906 15.5949 11.6903 16.0698 11.9829 16.3629L14.5056 18.8896C14.6462 19.0304 14.8371 19.1096 15.0361 19.1097C15.2352 19.1097 15.4261 19.0306 15.5668 18.8899L20.7641 13.6899Z" fill="url(#paint0_linear)"/>
<defs>
<linearGradient id="paint0_linear" x1="4.91602" y1="2.91748" x2="31.1033" y2="24.6671" gradientUnits="userSpaceOnUse">
<stop stop-color="currentColor"/>
<stop offset="1" stop-color="currentColor"/>
</linearGradient>
</defs>
</svg>
