<svg width="12" height="12" viewBox="0 0 12 12" fill="none" xmlns="http://www.w3.org/2000/svg">
<path fill-rule="evenodd" clip-rule="evenodd" d="M1.5 4.59375C1.5 2.06063 3.51857 0 6 0C8.48143 0 10.5 2.06063 10.5 4.59375C10.5 6.951 6.88971 11.1261 6.47829 11.5946C6.35614 11.7324 6.18257 11.8125 6 11.8125C5.81743 11.8125 5.64386 11.7324 5.52171 11.5946C5.11029 11.1261 1.5 6.951 1.5 4.59375ZM8.49999 4.42969C8.49999 5.78883 7.3807 6.89062 5.99999 6.89062C4.61928 6.89062 3.49999 5.78883 3.49999 4.42969C3.49999 3.07055 4.61928 1.96875 5.99999 1.96875C7.3807 1.96875 8.49999 3.07055 8.49999 4.42969Z" fill="#B2B3BD"/>
</svg>
