<svg width="24" height="24" viewBox="0 0 24 24" fill="none" xmlns="http://www.w3.org/2000/svg">
<path d="M16.4006 10.4009C15.5172 7.97054 12.8309 6.71643 10.4006 7.59978C8.77173 8.1918 7.67124 9.59364 7.38844 11.1855M7.59944 13.5998C8.48279 16.0301 11.1691 17.2842 13.5994 16.4009C15.2283 15.8089 16.3288 14.407 16.6116 12.8152" stroke="#888993" stroke-width="1.5" stroke-linecap="round" stroke-linejoin="round"/>
<path d="M15.0262 10.3157L16.6664 11.1287L17.3802 9.46015" stroke="#888993" stroke-width="1.5" stroke-linecap="round" stroke-linejoin="round"/>
<path d="M9.11445 13.9606L7.47418 13.1477L6.76042 14.8162" stroke="#888993" stroke-width="1.5" stroke-linecap="round" stroke-linejoin="round"/>
<path fill-rule="evenodd" clip-rule="evenodd" d="M2.75 12C2.75 5.063 5.063 2.75 12 2.75C18.937 2.75 21.25 5.063 21.25 12C21.25 18.937 18.937 21.25 12 21.25C5.063 21.25 2.75 18.937 2.75 12Z" stroke="#888993" stroke-width="1.5" stroke-linecap="round" stroke-linejoin="round"/>
</svg>
