<svg width="36" height="36" viewBox="0 0 36 36" fill="none" xmlns="http://www.w3.org/2000/svg">
<path d="M10.375 22.2809L14.8645 16.4474L19.9855 20.4674L24.379 14.7974" stroke="currentColor" stroke-width="1.5" stroke-linecap="round" stroke-linejoin="round"/>
<path fill-rule="evenodd" clip-rule="evenodd" d="M29.5002 3.5249C31.0932 3.5249 32.3832 4.8149 32.3832 6.4079C32.3832 7.9994 31.0932 9.2909 29.5002 9.2909C27.9072 9.2909 26.6172 7.9994 26.6172 6.4079C26.6172 4.8149 27.9072 3.5249 29.5002 3.5249Z" stroke="currentColor" stroke-width="1.5" stroke-linecap="round" stroke-linejoin="round"/>
<path d="M31.1328 13.9036C31.3323 15.2461 31.4238 16.7581 31.4238 18.4546C31.4238 28.8616 27.9558 32.3296 17.5488 32.3296C7.14333 32.3296 3.67383 28.8616 3.67383 18.4546C3.67383 8.04909 7.14333 4.57959 17.5488 4.57959C19.2138 4.57959 20.7003 4.66809 22.0233 4.86009" stroke="currentColor" stroke-width="1.5" stroke-linecap="round" stroke-linejoin="round"/>
</svg>
