<svg width="20" height="20" viewBox="0 0 20 20" fill="none" xmlns="http://www.w3.org/2000/svg">
<g id="Icon / View &#226;&#132;&#150;2">
<g id="Image 2">
<path id="Stroke 1" d="M7.4997 2.45312C4.38716 2.90771 2.9038 4.39106 2.44922 7.50361M12.4997 2.45312C15.6123 2.90771 17.0956 4.39106 17.5502 7.50361M17.5502 12.5036C17.0956 15.6162 15.6123 17.0995 12.4997 17.5541M7.4997 17.5541C4.38716 17.0995 2.9038 15.6162 2.44922 12.5036" stroke="#222222" stroke-width="1.5" stroke-linecap="round" stroke-linejoin="round"/>
<path id="Stroke 3" fill-rule="evenodd" clip-rule="evenodd" d="M9.60102 7.30344C9.60102 8.11427 8.94435 8.77094 8.13352 8.77094C7.32352 8.77094 6.66602 8.11427 6.66602 7.30344C6.66602 6.4926 7.32352 5.83594 8.13352 5.83594C8.94435 5.83594 9.60102 6.4926 9.60102 7.30344Z" stroke="#222222" stroke-width="1.5" stroke-linecap="round" stroke-linejoin="round"/>
<path id="Stroke 5" d="M15 12.4993C13.5 10.9926 12.7236 10.0391 10.834 10.4198C9.16732 10.7532 7.80556 12.0534 6 13.9979" stroke="#222222" stroke-width="1.5" stroke-linecap="round" stroke-linejoin="round"/>
</g>
</g>
</svg>
