<svg width="9" height="12" fill="none" xmlns="http://www.w3.org/2000/svg"><path fill-rule="evenodd" clip-rule="evenodd" d="M7 1.5a1.5 1.5 0 1 1-3 0 1.5 1.5 0 0 1 3 0Zm-.345 3.291 1.848.459a.646.646 0 0 1 .477.785.656.656 0 0 1-.799.468L6.16 6.002a.66.66 0 0 1-.304-.17 19.92 19.92 0 0 0-.428-.406l-.546 2.235a1.39 1.39 0 0 1-.044.142l.996 1.44a.638.638 0 0 1 .113.364v1.747a.652.652 0 0 1-.658.646.652.652 0 0 1-.658-.646V9.805L3.377 7.991a.641.641 0 0 1-.062-.113L2.909 9.59a.642.642 0 0 1-.134.266l-1.61 1.91a.661.661 0 0 1-.927.084.638.638 0 0 1-.087-.91L1.663 9.15l.415-1.751a1.368 1.368 0 0 1 .037-.39l.622-2.545c-.143.034-.29.07-.434.11L1.288 6.007a.665.665 0 0 1-.916.161.639.639 0 0 1-.164-.9L1.355 3.65a.657.657 0 0 1 .345-.248c.02-.006.524-.159 1.101-.274.936-.185 1.522-.169 1.902.054.643.377 1.594 1.267 1.952 1.61Z" fill="#79919E"/></svg>
