<svg width="24" height="24" viewBox="0 0 24 24" fill="none" xmlns="http://www.w3.org/2000/svg">
<path fill-rule="evenodd" clip-rule="evenodd" d="M2.75 12C2.75 18.937 5.063 21.25 12 21.25C18.937 21.25 21.25 18.937 21.25 12C21.25 5.063 18.937 2.75 12 2.75C5.063 2.75 2.75 5.063 2.75 12Z" stroke="#11142D" stroke-width="1.5" stroke-linecap="round" stroke-linejoin="round"/>
<path fill-rule="evenodd" clip-rule="evenodd" d="M10.6001 8.78395C10.6001 9.75695 9.81213 10.5449 8.83913 10.5449C7.86713 10.5449 7.07812 9.75695 7.07812 8.78395C7.07812 7.81095 7.86713 7.02295 8.83913 7.02295C9.81213 7.02295 10.6001 7.81095 10.6001 8.78395Z" stroke="#11142D" stroke-width="1.5" stroke-linecap="round" stroke-linejoin="round"/>
<path d="M21.1188 14.6667C20.2378 13.7607 18.9918 11.9297 16.7028 11.9297C14.4138 11.9297 14.3638 15.9677 12.0278 15.9677C9.69084 15.9677 8.74984 14.5967 7.22684 15.3127C5.70484 16.0277 4.46484 18.8737 4.46484 18.8737" stroke="#11142D" stroke-width="1.5" stroke-linecap="round" stroke-linejoin="round"/>
</svg>
